<svg width="66" height="48" viewBox="0 0 65.5244 48" fill="none" xmlns="http://www.w3.org/2000/svg">
<path id="Vector" d="M15.3425 17.4545C18.3632 17.4545 21.316 18.3503 23.8276 20.0285C26.3392 21.7066 28.2967 24.0919 29.4527 26.8826C30.6087 29.6734 30.9111 32.7442 30.3218 35.7068C29.7325 38.6694 28.2779 41.3908 26.142 43.5267C24.0061 45.6626 21.2847 47.1172 18.3221 47.7065C15.3595 48.2958 12.2886 47.9934 9.49792 46.8374C6.7072 45.6815 4.32193 43.7239 2.64374 41.2123C0.965548 38.7008 0.0698183 35.7479 0.0698183 32.7273L0 30.5454C0 22.4443 3.21817 14.6749 8.94655 8.94655C14.6749 3.21817 22.4443 0 30.5454 0V8.72727C27.679 8.71957 24.8394 9.28019 22.191 10.3767C19.5425 11.4732 17.1377 13.0839 15.1156 15.1156C14.3296 15.8999 13.6046 16.7431 12.9469 17.6378C13.7295 17.5127 14.5265 17.4502 15.3382 17.4502L15.3425 17.4545ZM50.2516 17.4545C53.2723 17.4545 56.2251 18.3503 58.7367 20.0285C61.2483 21.7066 63.2058 24.0919 64.3618 26.8826C65.5177 29.6734 65.8202 32.7442 65.2309 35.7068C64.6416 38.6694 63.187 41.3908 61.0511 43.5267C58.9151 45.6626 56.1938 47.1172 53.2312 47.7065C50.2686 48.2958 47.1977 47.9934 44.407 46.8374C41.6163 45.6815 39.231 43.7239 37.5528 41.2123C35.8746 38.7008 34.9789 35.7479 34.9789 32.7273L34.9091 30.5454C34.9091 22.4443 38.1273 14.6749 43.8556 8.94655C49.584 3.21817 57.3534 0 65.4545 0V8.72727C62.5881 8.71957 59.7485 9.28019 57.1001 10.3767C54.4516 11.4732 52.0468 13.0839 50.0247 15.1156C49.2387 15.8999 48.5137 16.7431 47.856 17.6378C48.6385 17.5127 49.4371 17.4545 50.2516 17.4545Z" fill="white"/>
</svg>
