<svg width="20" height="20" viewBox="0 0 20 20" fill="none" xmlns="http://www.w3.org/2000/svg">
<g id="01">
<g id="Frame 21060" clip-path="url(#clip0_0_1)">
<g id="Frame 21070">
<g id="Frame 21078">
<g id="Frame 21113">
<g id="tabler / tabler:brand-instagram">
<g id="Group">
<path id="Vector" d="M3.33333 6.66671C3.33333 5.78265 3.68452 4.93481 4.30964 4.30968C4.93476 3.68456 5.78261 3.33337 6.66666 3.33337H13.3333C14.2174 3.33337 15.0652 3.68456 15.6903 4.30968C16.3155 4.93481 16.6667 5.78265 16.6667 6.66671V13.3334C16.6667 14.2174 16.3155 15.0653 15.6903 15.6904C15.0652 16.3155 14.2174 16.6667 13.3333 16.6667H6.66666C5.78261 16.6667 4.93476 16.3155 4.30964 15.6904C3.68452 15.0653 3.33333 14.2174 3.33333 13.3334V6.66671Z" stroke="black" stroke-width="1.66667" stroke-linecap="round" stroke-linejoin="round"/>
<path id="Vector_2" d="M13.75 6.25V6.25833M7.5 10C7.5 10.663 7.76339 11.2989 8.23223 11.7678C8.70107 12.2366 9.33696 12.5 10 12.5C10.663 12.5 11.2989 12.2366 11.7678 11.7678C12.2366 11.2989 12.5 10.663 12.5 10C12.5 9.33696 12.2366 8.70107 11.7678 8.23223C11.2989 7.76339 10.663 7.5 10 7.5C9.33696 7.5 8.70107 7.76339 8.23223 8.23223C7.76339 8.70107 7.5 9.33696 7.5 10Z" stroke="black" stroke-width="1.66667" stroke-linecap="round" stroke-linejoin="round"/>
</g>
</g>
</g>
</g>
</g>
</g>
</g>
<defs>
<clipPath id="clip0_0_1"><rect width="20" height="20" fill="white"/></clipPath>
</defs>
</svg>
