<svg preserveAspectRatio="none" width="100%" height="100%" overflow="visible" style="display: block;" viewBox="0 0 25.7143 25.7143" fill="none" xmlns="http://www.w3.org/2000/svg">
<g id="Group">
<path id="Vector" d="M1.42857 4.28571C1.42857 3.52795 1.72959 2.80123 2.26541 2.26541C2.80123 1.72959 3.52795 1.42857 4.28571 1.42857H21.4286C22.1863 1.42857 22.9131 1.72959 23.4489 2.26541C23.9847 2.80123 24.2857 3.52795 24.2857 4.28571V21.4286C24.2857 22.1863 23.9847 22.9131 23.4489 23.4489C22.9131 23.9847 22.1863 24.2857 21.4286 24.2857H4.28571C3.52795 24.2857 2.80123 23.9847 2.26541 23.4489C1.72959 22.9131 1.42857 22.1863 1.42857 21.4286V4.28571Z" stroke="var(--stroke-0, #AB0DFF)" stroke-width="2.85714" stroke-linecap="round" stroke-linejoin="round"/>
<path id="Vector_2" d="M1.42857 14.2857H5.71429L10 18.5714H15.7143L20 14.2857H24.2857" stroke="var(--stroke-0, #AB0DFF)" stroke-width="2.85714" stroke-linecap="round" stroke-linejoin="round"/>
</g>
</svg>
