<svg preserveAspectRatio="none" width="100%" height="100%" overflow="visible" style="display: block;" viewBox="0 0 24 24" fill="none" xmlns="http://www.w3.org/2000/svg">
<g id="tabler / tabler:send-2">
<path id="Vector" d="M6.5 12L4.032 19.274C3.99819 19.3706 3.99149 19.4746 4.01265 19.5748C4.03381 19.6749 4.082 19.7673 4.152 19.842C4.22025 19.9148 4.30871 19.9655 4.40602 19.9876C4.50332 20.0097 4.60501 20.0022 4.698 19.966L21 12L4.698 4.034C4.60501 3.99783 4.50332 3.99031 4.40602 4.01241C4.30871 4.03451 4.22025 4.08521 4.152 4.158C4.082 4.23267 4.03381 4.3251 4.01265 4.42524C3.99149 4.52537 3.99819 4.6294 4.032 4.726L6.5 12ZM21 12H6.5" stroke="var(--stroke-0, #AB0DFF)" stroke-width="2" stroke-linecap="round" stroke-linejoin="round"/>
</g>
</svg>
