<svg preserveAspectRatio="none" width="100%" height="100%" overflow="visible" style="display: block;" viewBox="0 0 24 24" fill="none" xmlns="http://www.w3.org/2000/svg">
<g id="tabler / tabler:sparkles-2">
<g id="Vector">
<path d="M14.516 6.454C14.0274 6.67952 13.5202 6.8622 13 7C13.5207 7.13663 14.028 7.3197 14.516 7.547C15.427 7.985 16.01 8.561 16.453 9.479C16.66 9.905 16.835 10.406 17 11C17.1363 10.4776 17.3194 9.96857 17.547 9.479C17.99 8.562 18.573 7.985 19.484 7.547C19.9726 7.32114 20.4798 7.13812 21 7C20.409 6.834 19.91 6.659 19.484 6.454C18.573 6.016 17.99 5.439 17.547 4.521C17.34 4.095 17.165 3.595 17 3C16.835 3.594 16.66 4.094 16.453 4.522C16.01 5.439 15.427 6.016 14.516 6.454Z" stroke="var(--stroke-0, #AB0DFF)" stroke-width="2" stroke-linecap="round" stroke-linejoin="round"/>
<path d="M4.652 13.468C4.1089 13.668 3.55776 13.8455 3 14C3.55776 14.1545 4.1089 14.332 4.652 14.532C7.193 15.485 8.505 16.77 9.468 19.338C9.66943 19.884 9.84693 20.4385 10 21C10.1531 20.4385 10.3306 19.884 10.532 19.338C11.494 16.77 12.806 15.485 15.348 14.532C15.8911 14.332 16.4422 14.1545 17 14C16.3987 13.832 15.848 13.6547 15.348 13.468C12.807 12.515 11.495 11.229 10.532 8.662C10.3306 8.116 10.1531 7.56148 10 7C9.84693 7.56148 9.66943 8.116 9.468 8.662C8.505 11.23 7.194 12.515 4.652 13.468Z" stroke="var(--stroke-0, #AB0DFF)" stroke-width="2" stroke-linecap="round" stroke-linejoin="round"/>
</g>
</g>
</svg>
