<svg width="45" height="40" viewBox="0 0 45 40" fill="none" xmlns="http://www.w3.org/2000/svg">
<g id="01">
<g id="Main Menu">
<g id="Frame 40">
<g id="Frame 13">
<g id="Frame 4">
<g id="Group">
<path id="Vector" opacity="0.53" d="M10.8564 35.428C11.8024 35.428 12.5693 34.661 12.5693 33.715C12.5693 32.7689 11.8024 32.002 10.8564 32.002C9.91033 32.002 9.1434 32.7689 9.1434 33.715C9.1434 34.661 9.91033 35.428 10.8564 35.428Z" fill="#FF0013"/>
<path id="Vector_2" opacity="0.6" d="M10.8564 40C11.8024 40 12.5693 39.2331 12.5693 38.287C12.5693 37.341 11.8024 36.574 10.8564 36.574C9.91033 36.574 9.1434 37.341 9.1434 38.287C9.1434 39.2331 9.91033 40 10.8564 40Z" fill="#50E213"/>
<path id="Vector_3" d="M15.4281 35.428C16.3741 35.428 17.141 34.661 17.141 33.715C17.141 32.7689 16.3741 32.002 15.4281 32.002C14.482 32.002 13.7151 32.7689 13.7151 33.715C13.7151 34.661 14.482 35.428 15.4281 35.428Z" fill="#FF0013"/>
<g id="Group_2">
<path id="Vector_4" opacity="0.4" d="M1.71297 3.42594C2.65902 3.42594 3.42594 2.65902 3.42594 1.71297C3.42594 0.766923 2.65902 0 1.71297 0C0.766926 0 0 0.766923 0 1.71297C0 2.65902 0.766926 3.42594 1.71297 3.42594Z" fill="#2F1FFF"/>
<path id="Vector_5" opacity="0.47" d="M6.28472 3.42606C7.23077 3.42606 7.99769 2.65914 7.99769 1.71309C7.99769 0.767045 7.23077 0.00012207 6.28472 0.00012207C5.33867 0.00012207 4.57175 0.767045 4.57175 1.71309C4.57175 2.65914 5.33867 3.42606 6.28472 3.42606Z" fill="#2F1FFF"/>
<path id="Vector_6" opacity="0.53" d="M10.8564 3.42606C11.8024 3.42606 12.5693 2.65914 12.5693 1.71309C12.5693 0.767045 11.8024 0.00012207 10.8564 0.00012207C9.91033 0.00012207 9.1434 0.767045 9.1434 1.71309C9.1434 2.65914 9.91033 3.42606 10.8564 3.42606Z" fill="#2F1FFF"/>
<path id="Vector_7" opacity="0.6" d="M15.4281 3.42606C16.3741 3.42606 17.141 2.65914 17.141 1.71309C17.141 0.767045 16.3741 0.00012207 15.4281 0.00012207C14.482 0.00012207 13.7151 0.767045 13.7151 1.71309C13.7151 2.65914 14.482 3.42606 15.4281 3.42606Z" fill="#2F1FFF"/>
<path id="Vector_8" opacity="0.67" d="M19.9998 3.42606C20.9458 3.42606 21.7127 2.65914 21.7127 1.71309C21.7127 0.767045 20.9458 0.00012207 19.9998 0.00012207C19.0537 0.00012207 18.2868 0.767045 18.2868 1.71309C18.2868 2.65914 19.0537 3.42606 19.9998 3.42606Z" fill="#2F1FFF"/>
<path id="Vector_9" opacity="0.73" d="M24.5715 3.42606C25.5176 3.42606 26.2845 2.65914 26.2845 1.71309C26.2845 0.767045 25.5176 0.00012207 24.5715 0.00012207C23.6255 0.00012207 22.8586 0.767045 22.8586 1.71309C22.8586 2.65914 23.6255 3.42606 24.5715 3.42606Z" fill="#2F1FFF"/>
<path id="Vector_10" opacity="0.8" d="M29.1432 3.42606C30.0893 3.42606 30.8562 2.65914 30.8562 1.71309C30.8562 0.767045 30.0893 0.00012207 29.1432 0.00012207C28.1972 0.00012207 27.4302 0.767045 27.4302 1.71309C27.4302 2.65914 28.1972 3.42606 29.1432 3.42606Z" fill="#2F1FFF"/>
<path id="Vector_11" opacity="0.87" d="M33.7149 3.42606C34.661 3.42606 35.4279 2.65914 35.4279 1.71309C35.4279 0.767045 34.661 0.00012207 33.7149 0.00012207C32.7689 0.00012207 32.002 0.767045 32.002 1.71309C32.002 2.65914 32.7689 3.42606 33.7149 3.42606Z" fill="#2F1FFF"/>
<path id="Vector_12" opacity="0.93" d="M38.2866 3.42606C39.2327 3.42606 39.9996 2.65914 39.9996 1.71309C39.9996 0.767045 39.2327 0.00012207 38.2866 0.00012207C37.3406 0.00012207 36.5736 0.767045 36.5736 1.71309C36.5736 2.65914 37.3406 3.42606 38.2866 3.42606Z" fill="#2F1FFF"/>
<path id="Vector_13" d="M42.8583 3.42606C43.8044 3.42606 44.5713 2.65914 44.5713 1.71309C44.5713 0.767045 43.8044 0.00012207 42.8583 0.00012207C41.9123 0.00012207 41.1454 0.767045 41.1454 1.71309C41.1454 2.65914 41.9123 3.42606 42.8583 3.42606Z" fill="#2F1FFF"/>
</g>
<g id="Group_3">
<path id="Vector_14" opacity="0.4" d="M1.71297 7.99766C2.65902 7.99766 3.42594 7.23074 3.42594 6.28469C3.42594 5.33864 2.65902 4.57172 1.71297 4.57172C0.766926 4.57172 0 5.33864 0 6.28469C0 7.23074 0.766926 7.99766 1.71297 7.99766Z" fill="#0058D4"/>
<path id="Vector_15" opacity="0.47" d="M6.28472 7.99741C7.23077 7.99741 7.99769 7.23049 7.99769 6.28444C7.99769 5.3384 7.23077 4.57147 6.28472 4.57147C5.33867 4.57147 4.57175 5.3384 4.57175 6.28444C4.57175 7.23049 5.33867 7.99741 6.28472 7.99741Z" fill="#005BD9"/>
<path id="Vector_16" opacity="0.53" d="M10.8564 7.99741C11.8025 7.99741 12.5694 7.23049 12.5694 6.28444C12.5694 5.3384 11.8025 4.57147 10.8564 4.57147C9.91036 4.57147 9.14343 5.3384 9.14343 6.28444C9.14343 7.23049 9.91036 7.99741 10.8564 7.99741Z" fill="#005EDE"/>
<path id="Vector_17" opacity="0.6" d="M15.4281 7.99741C16.3741 7.99741 17.141 7.23049 17.141 6.28444C17.141 5.3384 16.3741 4.57147 15.4281 4.57147C14.482 4.57147 13.7151 5.3384 13.7151 6.28444C13.7151 7.23049 14.482 7.99741 15.4281 7.99741Z" fill="#0061E2"/>
<path id="Vector_18" opacity="0.67" d="M19.9998 7.99741C20.9458 7.99741 21.7128 7.23049 21.7128 6.28444C21.7128 5.3384 20.9458 4.57147 19.9998 4.57147C19.0538 4.57147 18.2868 5.3384 18.2868 6.28444C18.2868 7.23049 19.0538 7.99741 19.9998 7.99741Z" fill="#0064E7"/>
<path id="Vector_19" opacity="0.73" d="M24.5715 7.99741C25.5176 7.99741 26.2845 7.23049 26.2845 6.28444C26.2845 5.3384 25.5176 4.57147 24.5715 4.57147C23.6255 4.57147 22.8586 5.3384 22.8586 6.28444C22.8586 7.23049 23.6255 7.99741 24.5715 7.99741Z" fill="#0068EC"/>
<path id="Vector_20" opacity="0.8" d="M29.1432 7.99741C30.0893 7.99741 30.8562 7.23049 30.8562 6.28444C30.8562 5.3384 30.0893 4.57147 29.1432 4.57147C28.1972 4.57147 27.4303 5.3384 27.4303 6.28444C27.4303 7.23049 28.1972 7.99741 29.1432 7.99741Z" fill="#006BF1"/>
<path id="Vector_21" opacity="0.87" d="M33.715 7.99741C34.661 7.99741 35.4279 7.23049 35.4279 6.28444C35.4279 5.3384 34.661 4.57147 33.715 4.57147C32.7689 4.57147 32.002 5.3384 32.002 6.28444C32.002 7.23049 32.7689 7.99741 33.715 7.99741Z" fill="#006EF5"/>
<path id="Vector_22" opacity="0.93" d="M38.2866 7.99741C39.2327 7.99741 39.9996 7.23049 39.9996 6.28444C39.9996 5.3384 39.2327 4.57147 38.2866 4.57147C37.3406 4.57147 36.5737 5.3384 36.5737 6.28444C36.5737 7.23049 37.3406 7.99741 38.2866 7.99741Z" fill="#0071FA"/>
<path id="Vector_23" d="M42.8584 7.99741C43.8044 7.99741 44.5713 7.23049 44.5713 6.28444C44.5713 5.3384 43.8044 4.57147 42.8584 4.57147C41.9123 4.57147 41.1454 5.3384 41.1454 6.28444C41.1454 7.23049 41.9123 7.99741 42.8584 7.99741Z" fill="#0074FF"/>
</g>
<g id="Group_4">
<path id="Vector_24" opacity="0.4" d="M1.71297 12.5696C2.65902 12.5696 3.42594 11.8026 3.42594 10.8566C3.42594 9.91054 2.65902 9.14362 1.71297 9.14362C0.766926 9.14362 0 9.91054 0 10.8566C0 11.8026 0.766926 12.5696 1.71297 12.5696Z" fill="#FF0013"/>
<path id="Vector_25" opacity="0.47" d="M6.28472 12.5696C7.23077 12.5696 7.99769 11.8026 7.99769 10.8566C7.99769 9.91054 7.23077 9.14362 6.28472 9.14362C5.33867 9.14362 4.57175 9.91054 4.57175 10.8566C4.57175 11.8026 5.33867 12.5696 6.28472 12.5696Z" fill="#FF0013"/>
<path id="Vector_26" opacity="0.53" d="M10.8564 12.5696C11.8025 12.5696 12.5694 11.8026 12.5694 10.8566C12.5694 9.91054 11.8025 9.14362 10.8564 9.14362C9.91036 9.14362 9.14343 9.91054 9.14343 10.8566C9.14343 11.8026 9.91036 12.5696 10.8564 12.5696Z" fill="#FF0013"/>
<path id="Vector_27" opacity="0.6" d="M15.4281 12.5696C16.3741 12.5696 17.141 11.8026 17.141 10.8566C17.141 9.91054 16.3741 9.14362 15.4281 9.14362C14.482 9.14362 13.7151 9.91054 13.7151 10.8566C13.7151 11.8026 14.482 12.5696 15.4281 12.5696Z" fill="#FF0013"/>
<path id="Vector_28" opacity="0.67" d="M19.9998 12.5696C20.9458 12.5696 21.7128 11.8026 21.7128 10.8566C21.7128 9.91054 20.9458 9.14362 19.9998 9.14362C19.0538 9.14362 18.2868 9.91054 18.2868 10.8566C18.2868 11.8026 19.0538 12.5696 19.9998 12.5696Z" fill="#FF0013"/>
<path id="Vector_29" opacity="0.73" d="M24.5715 12.5696C25.5176 12.5696 26.2845 11.8026 26.2845 10.8566C26.2845 9.91054 25.5176 9.14362 24.5715 9.14362C23.6255 9.14362 22.8586 9.91054 22.8586 10.8566C22.8586 11.8026 23.6255 12.5696 24.5715 12.5696Z" fill="#FF0013"/>
<path id="Vector_30" opacity="0.8" d="M29.1432 12.5696C30.0893 12.5696 30.8562 11.8026 30.8562 10.8566C30.8562 9.91054 30.0893 9.14362 29.1432 9.14362C28.1972 9.14362 27.4303 9.91054 27.4303 10.8566C27.4303 11.8026 28.1972 12.5696 29.1432 12.5696Z" fill="#FF0013"/>
<path id="Vector_31" opacity="0.87" d="M33.715 12.5696C34.661 12.5696 35.4279 11.8026 35.4279 10.8566C35.4279 9.91054 34.661 9.14362 33.715 9.14362C32.7689 9.14362 32.002 9.91054 32.002 10.8566C32.002 11.8026 32.7689 12.5696 33.715 12.5696Z" fill="#FF0013"/>
<path id="Vector_32" opacity="0.93" d="M38.2866 12.5696C39.2327 12.5696 39.9996 11.8026 39.9996 10.8566C39.9996 9.91054 39.2327 9.14362 38.2866 9.14362C37.3406 9.14362 36.5737 9.91054 36.5737 10.8566C36.5737 11.8026 37.3406 12.5696 38.2866 12.5696Z" fill="#FF0013"/>
<path id="Vector_33" d="M42.8584 12.5696C43.8044 12.5696 44.5713 11.8026 44.5713 10.8566C44.5713 9.91054 43.8044 9.14362 42.8584 9.14362C41.9123 9.14362 41.1454 9.91054 41.1454 10.8566C41.1454 11.8026 41.9123 12.5696 42.8584 12.5696Z" fill="#FF0013"/>
</g>
<g id="Group_5">
<path id="Vector_34" opacity="0.4" d="M1.71297 17.141C2.65902 17.141 3.42594 16.3741 3.42594 15.4281C3.42594 14.482 2.65902 13.7151 1.71297 13.7151C0.766926 13.7151 0 14.482 0 15.4281C0 16.3741 0.766926 17.141 1.71297 17.141Z" fill="#50E213"/>
<path id="Vector_35" opacity="0.47" d="M6.28472 17.1411C7.23077 17.1411 7.99769 16.3742 7.99769 15.4281C7.99769 14.4821 7.23077 13.7151 6.28472 13.7151C5.33867 13.7151 4.57175 14.4821 4.57175 15.4281C4.57175 16.3742 5.33867 17.1411 6.28472 17.1411Z" fill="#50E213"/>
<path id="Vector_36" opacity="0.53" d="M10.8564 17.1411C11.8025 17.1411 12.5694 16.3742 12.5694 15.4281C12.5694 14.4821 11.8025 13.7151 10.8564 13.7151C9.91036 13.7151 9.14343 14.4821 9.14343 15.4281C9.14343 16.3742 9.91036 17.1411 10.8564 17.1411Z" fill="#50E213"/>
<path id="Vector_37" opacity="0.6" d="M15.4281 17.1411C16.3741 17.1411 17.141 16.3742 17.141 15.4281C17.141 14.4821 16.3741 13.7151 15.4281 13.7151C14.482 13.7151 13.7151 14.4821 13.7151 15.4281C13.7151 16.3742 14.482 17.1411 15.4281 17.1411Z" fill="#50E213"/>
<path id="Vector_38" opacity="0.67" d="M19.9998 17.1411C20.9458 17.1411 21.7128 16.3742 21.7128 15.4281C21.7128 14.4821 20.9458 13.7151 19.9998 13.7151C19.0538 13.7151 18.2868 14.4821 18.2868 15.4281C18.2868 16.3742 19.0538 17.1411 19.9998 17.1411Z" fill="#50E213"/>
<path id="Vector_39" opacity="0.73" d="M24.5715 17.1411C25.5176 17.1411 26.2845 16.3742 26.2845 15.4281C26.2845 14.4821 25.5176 13.7151 24.5715 13.7151C23.6255 13.7151 22.8586 14.4821 22.8586 15.4281C22.8586 16.3742 23.6255 17.1411 24.5715 17.1411Z" fill="#50E213"/>
<path id="Vector_40" opacity="0.8" d="M29.1432 17.1411C30.0893 17.1411 30.8562 16.3742 30.8562 15.4281C30.8562 14.4821 30.0893 13.7151 29.1432 13.7151C28.1972 13.7151 27.4303 14.4821 27.4303 15.4281C27.4303 16.3742 28.1972 17.1411 29.1432 17.1411Z" fill="#50E213"/>
<path id="Vector_41" opacity="0.87" d="M33.715 17.1411C34.661 17.1411 35.4279 16.3742 35.4279 15.4281C35.4279 14.4821 34.661 13.7151 33.715 13.7151C32.7689 13.7151 32.002 14.4821 32.002 15.4281C32.002 16.3742 32.7689 17.1411 33.715 17.1411Z" fill="#50E213"/>
<path id="Vector_42" opacity="0.93" d="M38.2866 17.1411C39.2327 17.1411 39.9996 16.3742 39.9996 15.4281C39.9996 14.4821 39.2327 13.7151 38.2866 13.7151C37.3406 13.7151 36.5737 14.4821 36.5737 15.4281C36.5737 16.3742 37.3406 17.1411 38.2866 17.1411Z" fill="#50E213"/>
<path id="Vector_43" d="M42.8584 17.1411C43.8044 17.1411 44.5713 16.3742 44.5713 15.4281C44.5713 14.4821 43.8044 13.7151 42.8584 13.7151C41.9123 13.7151 41.1454 14.4821 41.1454 15.4281C41.1454 16.3742 41.9123 17.1411 42.8584 17.1411Z" fill="#50E213"/>
</g>
<g id="Group_6">
<path id="Vector_44" opacity="0.4" d="M1.71297 21.7131C2.65902 21.7131 3.42594 20.9462 3.42594 20.0001C3.42594 19.0541 2.65902 18.2872 1.71297 18.2872C0.766926 18.2872 0 19.0541 0 20.0001C0 20.9462 0.766926 21.7131 1.71297 21.7131Z" fill="#EA0CEA"/>
<path id="Vector_45" opacity="0.47" d="M6.28472 21.7129C7.23077 21.7129 7.99769 20.946 7.99769 20C7.99769 19.0539 7.23077 18.287 6.28472 18.287C5.33867 18.287 4.57175 19.0539 4.57175 20C4.57175 20.946 5.33867 21.7129 6.28472 21.7129Z" fill="#EA0CEA"/>
<path id="Vector_46" opacity="0.53" d="M10.8564 21.7129C11.8025 21.7129 12.5694 20.946 12.5694 20C12.5694 19.0539 11.8025 18.287 10.8564 18.287C9.91036 18.287 9.14343 19.0539 9.14343 20C9.14343 20.946 9.91036 21.7129 10.8564 21.7129Z" fill="#EA0CEA"/>
<path id="Vector_47" opacity="0.6" d="M15.4281 21.7129C16.3741 21.7129 17.141 20.946 17.141 20C17.141 19.0539 16.3741 18.287 15.4281 18.287C14.482 18.287 13.7151 19.0539 13.7151 20C13.7151 20.946 14.482 21.7129 15.4281 21.7129Z" fill="#EA0CEA"/>
<path id="Vector_48" opacity="0.67" d="M19.9998 21.7129C20.9458 21.7129 21.7128 20.946 21.7128 20C21.7128 19.0539 20.9458 18.287 19.9998 18.287C19.0538 18.287 18.2868 19.0539 18.2868 20C18.2868 20.946 19.0538 21.7129 19.9998 21.7129Z" fill="#EA0CEA"/>
<path id="Vector_49" opacity="0.73" d="M24.5715 21.7129C25.5176 21.7129 26.2845 20.946 26.2845 20C26.2845 19.0539 25.5176 18.287 24.5715 18.287C23.6255 18.287 22.8586 19.0539 22.8586 20C22.8586 20.946 23.6255 21.7129 24.5715 21.7129Z" fill="#EA0CEA"/>
<path id="Vector_50" opacity="0.8" d="M29.1432 21.7129C30.0893 21.7129 30.8562 20.946 30.8562 20C30.8562 19.0539 30.0893 18.287 29.1432 18.287C28.1972 18.287 27.4303 19.0539 27.4303 20C27.4303 20.946 28.1972 21.7129 29.1432 21.7129Z" fill="#EA0CEA"/>
<path id="Vector_51" opacity="0.87" d="M33.715 21.7129C34.661 21.7129 35.4279 20.946 35.4279 20C35.4279 19.0539 34.661 18.287 33.715 18.287C32.7689 18.287 32.002 19.0539 32.002 20C32.002 20.946 32.7689 21.7129 33.715 21.7129Z" fill="#EA0CEA"/>
<path id="Vector_52" opacity="0.93" d="M38.2866 21.7129C39.2327 21.7129 39.9996 20.946 39.9996 20C39.9996 19.0539 39.2327 18.287 38.2866 18.287C37.3406 18.287 36.5737 19.0539 36.5737 20C36.5737 20.946 37.3406 21.7129 38.2866 21.7129Z" fill="#EA0CEA"/>
<path id="Vector_53" d="M42.8584 21.7129C43.8044 21.7129 44.5713 20.946 44.5713 20C44.5713 19.0539 43.8044 18.287 42.8584 18.287C41.9123 18.287 41.1454 19.0539 41.1454 20C41.1454 20.946 41.9123 21.7129 42.8584 21.7129Z" fill="#EA0CEA"/>
</g>
<g id="Group_7">
<path id="Vector_54" opacity="0.4" d="M1.71297 26.2845C2.65902 26.2845 3.42594 25.5175 3.42594 24.5715C3.42594 23.6254 2.65902 22.8585 1.71297 22.8585C0.766926 22.8585 0 23.6254 0 24.5715C0 25.5175 0.766926 26.2845 1.71297 26.2845Z" fill="#2F1FFF"/>
<path id="Vector_55" opacity="0.47" d="M6.28472 26.2845C7.23077 26.2845 7.99769 25.5175 7.99769 24.5715C7.99769 23.6254 7.23077 22.8585 6.28472 22.8585C5.33867 22.8585 4.57175 23.6254 4.57175 24.5715C4.57175 25.5175 5.33867 26.2845 6.28472 26.2845Z" fill="#2F1FFF"/>
<path id="Vector_56" opacity="0.53" d="M10.8564 26.2845C11.8025 26.2845 12.5694 25.5175 12.5694 24.5715C12.5694 23.6254 11.8025 22.8585 10.8564 22.8585C9.91036 22.8585 9.14343 23.6254 9.14343 24.5715C9.14343 25.5175 9.91036 26.2845 10.8564 26.2845Z" fill="#2F1FFF"/>
<path id="Vector_57" opacity="0.6" d="M15.4281 26.2845C16.3741 26.2845 17.141 25.5175 17.141 24.5715C17.141 23.6254 16.3741 22.8585 15.4281 22.8585C14.482 22.8585 13.7151 23.6254 13.7151 24.5715C13.7151 25.5175 14.482 26.2845 15.4281 26.2845Z" fill="#2F1FFF"/>
<path id="Vector_58" opacity="0.67" d="M19.9998 26.2845C20.9458 26.2845 21.7128 25.5175 21.7128 24.5715C21.7128 23.6254 20.9458 22.8585 19.9998 22.8585C19.0538 22.8585 18.2868 23.6254 18.2868 24.5715C18.2868 25.5175 19.0538 26.2845 19.9998 26.2845Z" fill="#2F1FFF"/>
<path id="Vector_59" opacity="0.73" d="M24.5715 26.2845C25.5176 26.2845 26.2845 25.5175 26.2845 24.5715C26.2845 23.6254 25.5176 22.8585 24.5715 22.8585C23.6255 22.8585 22.8586 23.6254 22.8586 24.5715C22.8586 25.5175 23.6255 26.2845 24.5715 26.2845Z" fill="#2F1FFF"/>
<path id="Vector_60" opacity="0.8" d="M29.1432 26.2845C30.0893 26.2845 30.8562 25.5175 30.8562 24.5715C30.8562 23.6254 30.0893 22.8585 29.1432 22.8585C28.1972 22.8585 27.4303 23.6254 27.4303 24.5715C27.4303 25.5175 28.1972 26.2845 29.1432 26.2845Z" fill="#2F1FFF"/>
<path id="Vector_61" opacity="0.87" d="M33.715 26.2845C34.661 26.2845 35.4279 25.5175 35.4279 24.5715C35.4279 23.6254 34.661 22.8585 33.715 22.8585C32.7689 22.8585 32.002 23.6254 32.002 24.5715C32.002 25.5175 32.7689 26.2845 33.715 26.2845Z" fill="#2F1FFF"/>
<path id="Vector_62" opacity="0.93" d="M38.2866 26.2845C39.2327 26.2845 39.9996 25.5175 39.9996 24.5715C39.9996 23.6254 39.2327 22.8585 38.2866 22.8585C37.3406 22.8585 36.5737 23.6254 36.5737 24.5715C36.5737 25.5175 37.3406 26.2845 38.2866 26.2845Z" fill="#2F1FFF"/>
<path id="Vector_63" d="M42.8584 26.2845C43.8044 26.2845 44.5713 25.5175 44.5713 24.5715C44.5713 23.6254 43.8044 22.8585 42.8584 22.8585C41.9123 22.8585 41.1454 23.6254 41.1454 24.5715C41.1454 25.5175 41.9123 26.2845 42.8584 26.2845Z" fill="#2F1FFF"/>
</g>
<g id="Group_8">
<path id="Vector_64" opacity="0.53" d="M10.8564 30.8565C11.8024 30.8565 12.5693 30.0896 12.5693 29.1435C12.5693 28.1975 11.8024 27.4305 10.8564 27.4305C9.91033 27.4305 9.1434 28.1975 9.1434 29.1435C9.1434 30.0896 9.91033 30.8565 10.8564 30.8565Z" fill="#0074FF"/>
<path id="Vector_65" opacity="0.77" d="M15.4281 30.8565C16.3741 30.8565 17.141 30.0896 17.141 29.1436C17.141 28.1975 16.3741 27.4306 15.4281 27.4306C14.482 27.4306 13.7151 28.1975 13.7151 29.1436C13.7151 30.0896 14.482 30.8565 15.4281 30.8565Z" fill="#0074FF"/>
<path id="Vector_66" d="M19.9998 30.8565C20.9458 30.8565 21.7127 30.0896 21.7127 29.1436C21.7127 28.1975 20.9458 27.4306 19.9998 27.4306C19.0537 27.4306 18.2868 28.1975 18.2868 29.1436C18.2868 30.0896 19.0537 30.8565 19.9998 30.8565Z" fill="#0074FF"/>
</g>
</g>
</g>
</g>
</g>
</g>
</g>
</svg>
