<svg width="102" height="33" viewBox="0 0 102 33" fill="none" xmlns="http://www.w3.org/2000/svg">
<g id="01">
<g id="Main Menu">
<g id="Frame 40">
<g id="Frame 13">
<g id="Frame 6">
<g id="Frame 21111">
<g id="Vector">
<path d="M4.3149 9.01321V13.4091C4.3149 13.5241 4.26183 13.5772 4.14685 13.5772H1.81179C1.6968 13.5772 1.64373 13.5241 1.64373 13.4091V0.60168C1.64373 0.486696 1.6968 0.433627 1.81179 0.433627H8.02977C9.17077 0.433627 10.0995 0.787423 10.8248 1.48617C11.5501 2.19377 11.9127 3.27285 11.9127 4.73226C11.9127 6.89927 11.0547 8.18179 9.32998 8.57981L12.1869 12.5423C12.1869 12.5423 12.2311 12.6219 12.2311 12.675C12.2311 12.7546 12.178 12.8165 12.0631 12.8873L10.0906 14.0194C10.0376 14.0548 9.99335 14.0725 9.94912 14.0725C9.85183 14.0725 9.75454 13.9929 9.65724 13.8249L6.4996 9.01321H4.30606H4.3149ZM4.3149 2.91905V6.56317H7.88826C8.26859 6.56317 8.55163 6.42165 8.72852 6.14745C8.90542 5.87326 8.99387 5.37794 8.99387 4.6792C8.99387 4.01583 8.91427 3.55589 8.75506 3.29939C8.59585 3.05173 8.32166 2.91905 7.94133 2.91905H4.3149Z" fill="white"/>
<path d="M18.5464 11.5251C19.6874 11.5251 20.6691 11.4189 21.4829 11.2067C21.589 11.1713 21.6509 11.2067 21.6686 11.3216L21.8897 13.3383C21.9251 13.4621 21.8897 13.5417 21.7925 13.5859C20.7488 13.7628 19.5635 13.8513 18.2368 13.8513C16.4855 13.8513 15.2649 13.4798 14.575 12.7457C13.8851 12.0115 13.5401 10.676 13.5401 8.75661C13.5401 6.83726 13.8851 5.51937 14.5661 4.77639C15.2472 4.03342 16.4324 3.66193 18.113 3.66193C19.7935 3.66193 20.8814 4.05111 21.474 4.82062C22.0666 5.59013 22.3674 7.08492 22.3674 9.305C22.3674 9.3846 22.3408 9.43767 22.2789 9.4819C22.217 9.52612 22.1639 9.54381 22.102 9.54381H16.2732C16.3086 10.446 16.4413 11.0032 16.6889 11.2155C16.9277 11.4189 17.5557 11.5251 18.5464 11.5251ZM16.2998 7.49179H19.7847C19.7758 6.78419 19.6697 6.34195 19.4574 6.1562C19.254 5.97046 18.7763 5.87316 18.0422 5.87316C17.3081 5.87316 16.8658 5.97046 16.6624 6.1562C16.459 6.34195 16.3351 6.79304 16.3086 7.49179H16.2998Z" fill="white"/>
<path d="M24.2691 17.0355V4.09533C24.2691 3.98035 24.3221 3.92728 24.4283 3.92728H26.6395C26.7545 3.92728 26.8075 3.98035 26.8075 4.09533V5.04174C27.0552 4.71448 27.4975 4.40491 28.1343 4.10418C28.7711 3.81229 29.3726 3.66193 29.9298 3.66193C31.2742 3.66193 32.2206 4.03342 32.769 4.76755C33.3174 5.50168 33.5828 6.83726 33.5828 8.75661C33.5828 10.676 33.3086 12.0115 32.769 12.7457C32.2295 13.4798 31.2742 13.8513 29.921 13.8513C29.3726 13.8513 28.78 13.7009 28.1431 13.4002C27.5063 13.0995 27.0641 12.7811 26.8164 12.4538V17.0355C26.8164 17.1505 26.7633 17.2035 26.6483 17.2035H24.4371C24.331 17.2035 24.2779 17.1505 24.2779 17.0355H24.2691ZM26.7987 6.64267V10.8882C27.3471 11.1801 28.0724 11.3216 28.9746 11.3216C29.346 11.3216 29.6291 11.304 29.8148 11.2774C30.0006 11.242 30.1775 11.189 30.3367 11.1182C30.4959 11.0475 30.602 10.8971 30.6639 10.6937C30.717 10.4902 30.7612 10.2426 30.7878 9.95952C30.8143 9.67648 30.8231 9.27846 30.8231 8.76546C30.8231 8.25245 30.8143 7.85443 30.7878 7.57139C30.7612 7.28835 30.717 7.0407 30.6639 6.83726C30.6109 6.63383 30.4959 6.49231 30.3367 6.4127C30.1775 6.3331 30.0006 6.28003 29.8148 6.2535C29.6291 6.21812 29.346 6.20927 28.9746 6.20927C28.1078 6.20927 27.3825 6.35963 26.7987 6.66036V6.64267Z" fill="white"/>
<path d="M35.9532 11.5073V0.168054C35.9532 0.0530701 36.0063 0 36.1124 0H38.3148C38.4298 0 38.4829 0.0530701 38.4829 0.168054V11.525L39.1197 12.8075C39.1816 12.9048 39.1728 12.9932 39.0843 13.0551L37.0058 14.0369C36.8996 14.0988 36.8289 14.0811 36.7846 13.9838L36.2274 12.7721C36.0417 12.3475 35.9444 11.923 35.9444 11.5073H35.9532Z" fill="white"/>
<path d="M50.1847 4.43119L46.921 14.2579C46.5406 15.4254 46.0188 16.248 45.3554 16.7168C44.7009 17.1856 43.8075 17.4244 42.6931 17.4244C42.5869 17.4509 42.525 17.4156 42.5073 17.3094L42.2154 15.2309C42.1978 15.1778 42.1978 15.1336 42.2154 15.0805C42.2331 15.0274 42.2685 15.0009 42.3127 15.0009C42.923 15.0009 43.383 14.9124 43.6837 14.7267C43.9933 14.541 44.2409 14.1606 44.4355 13.568H43.781C43.4626 13.568 43.2592 13.4176 43.1884 13.1169L40.2784 4.44004C40.2342 4.32505 40.2784 4.25429 40.4022 4.22776L42.7815 3.64399C42.9054 3.61746 42.9761 3.67053 43.0026 3.79436L45.2227 11.5691L47.4782 3.79436C47.4959 3.67053 47.5755 3.61746 47.6993 3.64399L50.0786 4.22776C50.2024 4.25429 50.2378 4.31621 50.1847 4.4135V4.43119Z" fill="white"/>
<path d="M8.63122 26.2959H3.62498L2.70511 29.2589C2.68742 29.4004 2.60782 29.4535 2.48399 29.427L0.148925 28.8432C0.0250955 28.8344 -0.0191292 28.7724 0.00740561 28.6575L4.04954 16.1861C4.06723 16.0623 4.14683 16.0004 4.27066 16.0004H7.98554C8.11821 16.0004 8.19782 16.0623 8.21551 16.1861L12.24 28.6398C12.293 28.7548 12.2576 28.8255 12.1338 28.8432L9.77221 29.427C9.64838 29.4535 9.56878 29.3916 9.52456 29.2589L8.62237 26.2959H8.63122ZM7.90593 23.8635L6.15463 17.8666L4.36796 23.8635H7.91478H7.90593Z" fill="#7E90A3"/>
<path d="M16.4059 19.6802V20.6089C16.7597 20.2286 17.2285 19.9101 17.8211 19.636C18.4137 19.3618 19.0417 19.2291 19.7051 19.2291C20.8549 19.2291 21.6598 19.574 22.1109 20.2551C22.5708 20.945 22.7919 22.1302 22.7919 23.8285V28.9762C22.7919 29.0912 22.7389 29.1443 22.6239 29.1443H20.4303C20.3154 29.1443 20.2623 29.0912 20.2623 28.9762V24.0319C20.2623 23.0413 20.165 22.4133 19.9704 22.1656C19.7758 21.9179 19.2894 21.7853 18.511 21.7853C17.6796 21.7853 16.9808 21.9179 16.4147 22.1833V28.9762C16.4147 29.0912 16.3617 29.1443 16.2467 29.1443H14.0355C13.9293 29.1443 13.8763 29.0912 13.8763 28.9762V19.6713C13.8763 19.5564 13.9293 19.5033 14.0355 19.5033H16.2467C16.3617 19.5033 16.4147 19.5564 16.4147 19.6713L16.4059 19.6802Z" fill="#7E90A3"/>
<path d="M34.1842 19.9984L30.9204 29.8251C30.5401 30.9926 30.0183 31.8152 29.3549 32.284C28.7004 32.7527 27.807 32.9916 26.6926 32.9916C26.5864 33.0181 26.5245 32.9827 26.5068 32.8766L26.2149 30.798C26.1972 30.7449 26.1972 30.7007 26.2149 30.6476C26.2326 30.5946 26.268 30.568 26.3122 30.568C26.9225 30.568 27.3825 30.4796 27.6832 30.2939C27.9928 30.1081 28.2404 29.7278 28.435 29.1352H27.7805C27.4621 29.1352 27.2586 28.9848 27.1879 28.6841L24.2779 20.0072C24.2337 19.8922 24.2779 19.8215 24.4017 19.7949L26.781 19.2112C26.9048 19.1846 26.9756 19.2377 27.0021 19.3615L29.2222 27.1362L31.4777 19.3615C31.4954 19.2377 31.575 19.1846 31.6988 19.2112L34.0781 19.7949C34.2019 19.8215 34.2373 19.8834 34.1842 19.9807V19.9984Z" fill="#7E90A3"/>
<path d="M43.9844 19.6625L45.7269 27.0215L47.6108 19.3795C47.6285 19.2822 47.6904 19.2291 47.7966 19.2291H47.8319L50.1759 19.8129C50.2466 19.8217 50.282 19.8659 50.282 19.9455V19.9986L47.717 28.9762C47.6993 29.0912 47.6285 29.1443 47.5135 29.1443H44.1259C44.0109 29.1443 43.9402 29.0912 43.9225 28.9762L42.4277 22.5459L40.9329 28.9762C40.9152 29.0912 40.8444 29.1443 40.7295 29.1443H37.3772C37.2446 29.1443 37.1738 29.0912 37.1738 28.9762L34.5645 20.0163V19.9986C34.5645 19.9986 34.5469 19.9721 34.5469 19.9632C34.5469 19.8925 34.5911 19.8394 34.6884 19.8129L37.0234 19.2291H37.0588C37.1738 19.2291 37.2357 19.2822 37.2623 19.3795L39.1728 27.0215L40.8798 19.6625C40.8975 19.5475 40.9683 19.4944 41.0833 19.4944H43.7987C43.9225 19.4944 43.9844 19.5475 43.9844 19.6625Z" fill="#7E90A3"/>
<path d="M60.9755 23.8283V28.9761C60.9755 29.0911 60.9225 29.1441 60.8075 29.1441H58.5963C58.4813 29.1441 58.4282 29.0911 58.4282 28.9761V24.0318C58.4282 23.0411 58.3309 22.4131 58.1363 22.1655C57.9417 21.9178 57.4553 21.7851 56.6769 21.7851C55.8455 21.7851 55.1467 21.9178 54.5807 22.1832V28.9761C54.5807 29.0911 54.5276 29.1441 54.4126 29.1441H52.2014C52.0952 29.1441 52.0422 29.0911 52.0422 28.9761V15.7352C52.0422 15.6202 52.0952 15.5672 52.2014 15.5672H54.4126C54.5276 15.5672 54.5807 15.6202 54.5807 15.7352V20.5999C54.9168 20.2373 55.359 19.91 55.9162 19.6358C56.4735 19.3616 57.0661 19.2201 57.6852 19.2201C58.9058 19.2201 59.7638 19.5562 60.2503 20.2196C60.7367 20.883 60.9844 22.0859 60.9844 23.8195L60.9755 23.8283Z" fill="#7E90A3"/>
<path d="M68.4937 27.0922C69.6347 27.0922 70.6165 26.9861 71.4302 26.7738C71.5364 26.7384 71.5983 26.7738 71.616 26.8888L71.8371 28.9054C71.8725 29.0293 71.8371 29.1089 71.7398 29.1531C70.6961 29.33 69.5109 29.4185 68.1842 29.4185C66.4329 29.4185 65.2123 29.047 64.5224 28.3128C63.8325 27.5787 63.4875 26.2431 63.4875 24.3238C63.4875 22.4044 63.8325 21.0865 64.5135 20.3435C65.1946 19.6006 66.3798 19.2291 68.0603 19.2291C69.7409 19.2291 70.8288 19.6183 71.4214 20.3878C72.014 21.1573 72.3147 22.6521 72.3147 24.8722C72.3147 24.9518 72.2882 25.0048 72.2263 25.0491C72.1644 25.0933 72.1113 25.111 72.0494 25.111H66.2206C66.256 26.0132 66.3886 26.5704 66.6363 26.7827C66.8751 26.9861 67.5031 27.0922 68.4937 27.0922ZM66.2383 23.0589H69.7232C69.7143 22.3513 69.6082 21.9091 69.3959 21.7234C69.1925 21.5376 68.7149 21.4403 67.9807 21.4403C67.2466 21.4403 66.8043 21.5376 66.6009 21.7234C66.3975 21.9091 66.2736 22.3602 66.2471 23.0589H66.2383Z" fill="#7E90A3"/>
<path d="M80.2221 19.2199C80.6997 19.2199 81.142 19.273 81.5577 19.388C81.6638 19.4145 81.6904 19.4853 81.655 19.6179L81.3631 21.9618C81.3543 22.0149 81.3277 22.0503 81.2835 22.0768C81.2393 22.1034 81.2039 22.1122 81.1774 22.0945C80.6378 21.9353 80.0629 21.8469 79.4526 21.8469C78.7715 21.8469 78.0905 21.9707 77.4183 22.2272V28.9847C77.4183 29.0997 77.3652 29.1528 77.2502 29.1528H75.0567C74.9417 29.1528 74.8886 29.0997 74.8886 28.9847V21.4931L74.2695 20.2636C74.2164 20.1663 74.2341 20.0779 74.3137 20.016L76.2419 19.0342C76.3392 18.9723 76.41 18.9899 76.4719 19.0872L77.2679 20.5997C78.1347 19.6799 79.1253 19.2199 80.2398 19.2199H80.2221Z" fill="#7E90A3"/>
<path d="M87.8111 27.0922C88.952 27.0922 89.9338 26.9861 90.7476 26.7738C90.8537 26.7384 90.9156 26.7738 90.9333 26.8888L91.1544 28.9054C91.1898 29.0293 91.1544 29.1089 91.0571 29.1531C90.0134 29.33 88.8282 29.4185 87.5015 29.4185C85.7502 29.4185 84.5296 29.047 83.8397 28.3128C83.1498 27.5787 82.8048 26.2431 82.8048 24.3238C82.8048 22.4044 83.1498 21.0865 83.8308 20.3435C84.5119 19.6006 85.6971 19.2291 87.3776 19.2291C89.0582 19.2291 90.1461 19.6183 90.7387 20.3878C91.3313 21.1573 91.6321 22.6521 91.6321 24.8722C91.6321 24.9518 91.6055 25.0048 91.5436 25.0491C91.4817 25.0933 91.4286 25.111 91.3667 25.111H85.5379C85.5733 26.0132 85.706 26.5704 85.9536 26.7827C86.1924 26.9861 86.8204 27.0922 87.8111 27.0922ZM85.5556 23.0589H89.0405C89.0317 22.3513 88.9255 21.9091 88.7132 21.7234C88.5098 21.5376 88.0322 21.4403 87.298 21.4403C86.5639 21.4403 86.1217 21.5376 85.9182 21.7234C85.7148 21.9091 85.591 22.3602 85.5644 23.0589H85.5556Z" fill="#7E90A3"/>
</g>
<g id="Union">
<path fill-rule="evenodd" clip-rule="evenodd" d="M98.3045 14.5517C98.4591 14.5517 98.6273 14.5957 98.8093 14.6849C98.9915 14.7709 99.1472 14.9055 99.2744 15.0877C99.4048 15.2663 99.4701 15.4936 99.4701 15.7683C99.4701 16.0466 99.4028 16.2843 99.2688 16.4801C99.1504 16.6501 99.0073 16.781 98.8434 16.8786L99.6247 18.3562H98.7072L98.0393 17.0672H97.2112V18.3562H96.376V14.5517H98.3045ZM97.2112 16.449H97.984C98.0975 16.449 98.2207 16.3922 98.3513 16.2788C98.4852 16.1654 98.5512 15.9949 98.5512 15.7683C98.5512 15.5347 98.4852 15.3758 98.3513 15.2933C98.2207 15.2108 98.105 15.1699 98.0053 15.1699H97.2112V16.449Z" fill="#7E90A3"/>
<path fill-rule="evenodd" clip-rule="evenodd" d="M97.8195 12.375C98.3901 12.375 98.9249 12.481 99.4233 12.6941C99.9217 12.9072 100.36 13.2037 100.738 13.5817C101.116 13.9598 101.412 14.3978 101.625 14.8962C101.839 15.3946 101.945 15.9294 101.945 16.5C101.945 17.0706 101.839 17.6054 101.625 18.1038C101.412 18.6022 101.116 19.0401 100.738 19.4183C100.36 19.7964 99.9218 20.0928 99.4233 20.3059C98.9249 20.519 98.3901 20.625 97.8195 20.625C97.249 20.625 96.7142 20.5191 96.2158 20.3059C95.7174 20.0928 95.2794 19.7964 94.9013 19.4183C94.5232 19.0402 94.2267 18.6022 94.0136 18.1038C93.8005 17.6054 93.6945 17.0706 93.6945 16.5C93.6946 15.9294 93.8005 15.3946 94.0136 14.8962C94.2267 14.3978 94.5231 13.9599 94.9013 13.5817C95.2794 13.2036 95.7173 12.9072 96.2158 12.6941C96.7142 12.4809 97.249 12.375 97.8195 12.375ZM97.8195 13.3648C97.2421 13.3648 96.7157 13.5055 96.2413 13.7873C95.767 14.0692 95.3887 14.4475 95.1069 14.9218C94.825 15.3961 94.6843 15.9225 94.6843 16.5C94.6843 17.0775 94.825 17.6039 95.1069 18.0782C95.3887 18.5525 95.767 18.9308 96.2413 19.2127C96.7157 19.4945 97.2421 19.6352 97.8195 19.6352C98.3971 19.6352 98.9234 19.4945 99.3978 19.2127C99.8721 18.9308 100.25 18.5526 100.532 18.0782C100.814 17.6039 100.955 17.0775 100.955 16.5C100.955 15.9225 100.814 15.3961 100.532 14.9218C100.25 14.4475 99.8721 14.0692 99.3978 13.7873C98.9234 13.5055 98.3971 13.3648 97.8195 13.3648Z" fill="#7E90A3"/>
</g>
</g>
</g>
</g>
</g>
</g>
</g>
</svg>
