<svg width="30" height="30" viewBox="0 0 30 30" fill="none" xmlns="http://www.w3.org/2000/svg">
<rect width="30" height="30" fill="#1E1E1E"/>
<g id="01">
<rect width="1440" height="3149" transform="translate(-316 -244)" fill="#111322"/>
<g id="Frame 21059">
<g id="Frame 20970">
<g id="Frame 20969">
<g id="Frame 21060">
<g id="Frame 21063">
<g id="Frame 21063_2">
<rect x="-10" y="-10" width="50" height="50" rx="25" fill="black"/>
<g id="Amazon_icon 1" clip-path="url(#clip0_0_1)">
<g id="Group">
<path id="Vector" d="M25.8263 24.2205C13.6823 30 6.14564 25.1644 1.32118 22.2274C1.02264 22.0423 0.515234 22.2707 0.955479 22.7764C2.56275 24.7252 7.83011 29.4225 14.7055 29.4225C21.5857 29.4225 25.6788 25.6684 26.1908 25.0135C26.6994 24.3642 26.3401 24.006 25.8261 24.2205H25.8263ZM29.2368 22.337C28.9107 21.9123 27.2538 21.8331 26.2111 21.9612C25.1667 22.0856 23.5992 22.7239 23.7355 23.1071C23.8054 23.2507 23.9481 23.1863 24.6656 23.1218C25.385 23.05 27.4003 22.7957 27.8202 23.3446C28.2421 23.8974 27.1774 26.5305 26.983 26.9552C26.7951 27.3799 27.0548 27.4894 27.4077 27.2065C27.7557 26.9238 28.3858 26.1916 28.8086 25.1554C29.2285 24.1136 29.4847 22.6603 29.2368 22.337Z" fill="#FF9900"/>
<path id="Vector_2" fill-rule="evenodd" clip-rule="evenodd" d="M17.6608 12.4275C17.6608 13.9439 17.6991 15.2086 16.9326 16.5553C16.314 17.6503 15.334 18.3236 14.2391 18.3236C12.7445 18.3236 11.874 17.1849 11.874 15.5042C11.874 12.1865 14.8467 11.5844 17.6608 11.5844V12.4275ZM21.586 21.9151C21.3287 22.1449 20.9564 22.1614 20.6663 22.0081C19.3743 20.9351 19.1443 20.4369 18.4327 19.4131C16.2976 21.5921 14.7865 22.2435 12.0164 22.2435C8.74256 22.2435 6.19133 20.2233 6.19133 16.1776C6.19133 13.0188 7.905 10.8672 10.3411 9.81613C12.4543 8.88533 15.4052 8.72112 17.6608 8.46389V7.96018C17.6608 7.03491 17.7319 5.94002 17.1899 5.14077C16.7136 4.42357 15.8048 4.12791 15.0055 4.12791C13.5219 4.12791 12.197 4.88885 11.874 6.46554C11.8082 6.816 11.551 7.16093 11.2007 7.17732L7.42309 6.77227C7.10563 6.70095 6.75528 6.44373 6.84287 5.9564C7.71332 1.3797 11.8465 0 15.5474 0C17.4416 0 19.9161 0.503714 21.4108 1.93812C23.305 3.70636 23.1243 6.06591 23.1243 8.63353V14.6994C23.1243 16.5225 23.8798 17.3218 24.5915 18.3073C24.8433 18.6576 24.8981 19.0793 24.5805 19.3419C23.7867 20.0043 22.3742 21.2362 21.5969 21.926L21.5859 21.9151" fill="black"/>
<path id="Vector_3" d="M25.8263 24.2205C13.6823 30 6.14564 25.1644 1.32118 22.2274C1.02264 22.0423 0.515234 22.2707 0.955479 22.7764C2.56275 24.7252 7.83011 29.4225 14.7055 29.4225C21.5857 29.4225 25.6788 25.6684 26.1908 25.0135C26.6994 24.3642 26.3401 24.006 25.8261 24.2205H25.8263ZM29.2368 22.337C28.9107 21.9123 27.2538 21.8331 26.2111 21.9612C25.1667 22.0856 23.5992 22.7239 23.7355 23.1071C23.8054 23.2507 23.9481 23.1863 24.6656 23.1218C25.385 23.05 27.4003 22.7957 27.8202 23.3446C28.2421 23.8974 27.1774 26.5305 26.983 26.9552C26.7951 27.3799 27.0548 27.4894 27.4077 27.2065C27.7557 26.9238 28.3858 26.1916 28.8086 25.1554C29.2285 24.1136 29.4847 22.6603 29.2368 22.337Z" fill="#FF9900"/>
<path id="Vector_4" fill-rule="evenodd" clip-rule="evenodd" d="M17.6608 12.4275C17.6608 13.9439 17.6991 15.2086 16.9326 16.5553C16.314 17.6503 15.334 18.3236 14.2391 18.3236C12.7445 18.3236 11.874 17.1849 11.874 15.5042C11.874 12.1865 14.8467 11.5844 17.6608 11.5844V12.4275ZM21.586 21.9151C21.3287 22.1449 20.9564 22.1614 20.6663 22.0081C19.3743 20.9351 19.1443 20.4369 18.4327 19.4131C16.2976 21.5921 14.7865 22.2435 12.0164 22.2435C8.74256 22.2435 6.19133 20.2233 6.19133 16.1776C6.19133 13.0188 7.905 10.8672 10.3411 9.81613C12.4543 8.88533 15.4052 8.72112 17.6608 8.46389V7.96018C17.6608 7.03491 17.7319 5.94002 17.1899 5.14077C16.7136 4.42357 15.8048 4.12791 15.0055 4.12791C13.5219 4.12791 12.197 4.88885 11.874 6.46554C11.8082 6.816 11.551 7.16093 11.2007 7.17732L7.42309 6.77227C7.10563 6.70095 6.75528 6.44373 6.84287 5.9564C7.71332 1.3797 11.8465 0 15.5474 0C17.4416 0 19.9161 0.503714 21.4108 1.93812C23.305 3.70636 23.1243 6.06591 23.1243 8.63353V14.6994C23.1243 16.5225 23.8798 17.3218 24.5915 18.3073C24.8433 18.6576 24.8981 19.0793 24.5805 19.3419C23.7867 20.0043 22.3742 21.2362 21.5969 21.926L21.5859 21.9151" fill="white"/>
</g>
</g>
</g>
</g>
</g>
</g>
</g>
</g>
</g>
<defs>
<clipPath id="clip0_0_1">
<rect width="30" height="30" fill="white"/>
</clipPath>
</defs>
</svg>
