<svg width="40" height="40" viewBox="0 0 40 40" fill="none" xmlns="http://www.w3.org/2000/svg">

<g id="01">

<g id="Frame 21059">
<g id="Frame 21099">
<g id="Frame 21103">

<g id="Frame 21061">
<g id="logos / amazone">
<g id="Group">
<path id="Vector" d="M34.435 32.2941C18.243 40.0001 8.19414 33.5527 1.76153 29.6367C1.36348 29.3899 0.686938 29.6944 1.27393 30.3686C3.41696 32.9671 10.4401 39.2301 19.6073 39.2301C28.7809 39.2301 34.2383 34.2246 34.921 33.3514C35.5991 32.4856 35.1201 32.008 34.4348 32.2941H34.435ZM38.9824 29.7827C38.5476 29.2165 36.3384 29.1109 34.9481 29.2817C33.5556 29.4476 31.4655 30.2986 31.6472 30.8096C31.7405 31.001 31.9308 30.9151 32.8874 30.8291C33.8466 30.7334 36.5337 30.3943 37.0936 31.1262C37.6561 31.8632 36.2366 35.3741 35.9773 35.9403C35.7268 36.5066 36.073 36.6526 36.5435 36.2755C37.0076 35.8985 37.8477 34.9222 38.4114 33.5407C38.9713 32.1516 39.3129 30.2138 38.9824 29.7827Z" fill="#FF9900"/>
<path id="Vector_2" fill-rule="evenodd" clip-rule="evenodd" d="M23.5477 16.57C23.5477 18.5919 23.5987 20.2781 22.5768 22.0737C21.7519 23.5337 20.4453 24.4315 18.9854 24.4315C16.9926 24.4315 15.832 22.9132 15.832 20.6723C15.832 16.2487 19.7955 15.4458 23.5477 15.4458V16.57ZM28.7814 29.2201C28.4382 29.5266 27.9419 29.5486 27.5551 29.3441C25.8324 27.9135 25.5257 27.2492 24.5769 25.8842C21.7301 28.7894 19.7154 29.658 16.0218 29.658C11.6567 29.658 8.25507 26.9644 8.25507 21.5701C8.25507 17.3584 10.54 14.4896 13.788 13.0882C16.6058 11.8471 20.5402 11.6282 23.5477 11.2852V10.6136C23.5477 9.37989 23.6424 7.92002 22.9199 6.85436C22.2847 5.89809 21.0731 5.50389 20.0072 5.50389C18.0292 5.50389 16.2626 6.51847 15.832 8.62072C15.7443 9.08801 15.4013 9.54791 14.9342 9.56976L9.89742 9.02969C9.47413 8.9346 9.007 8.59164 9.12378 7.94187C10.2844 1.8396 15.7953 0 20.7298 0C23.2555 0 26.5548 0.671618 28.5476 2.58415C31.0733 4.94182 30.8324 8.08789 30.8324 11.5114V19.5993C30.8324 22.03 31.8397 23.0957 32.7886 24.4097C33.1243 24.8768 33.1974 25.439 32.774 25.7892C31.7156 26.6724 29.8323 28.3149 28.7958 29.2347L28.7812 29.2201" fill="black"/>
<path id="Vector_3" d="M34.435 32.2941C18.243 40.0001 8.19414 33.5527 1.76153 29.6367C1.36348 29.3899 0.686938 29.6944 1.27393 30.3686C3.41696 32.9671 10.4401 39.2301 19.6073 39.2301C28.7809 39.2301 34.2383 34.2246 34.921 33.3514C35.5991 32.4856 35.1201 32.008 34.4348 32.2941H34.435ZM38.9824 29.7827C38.5476 29.2165 36.3384 29.1109 34.9481 29.2817C33.5556 29.4476 31.4655 30.2986 31.6472 30.8096C31.7405 31.001 31.9308 30.9151 32.8874 30.8291C33.8466 30.7334 36.5337 30.3943 37.0936 31.1262C37.6561 31.8632 36.2366 35.3741 35.9773 35.9403C35.7268 36.5066 36.073 36.6526 36.5435 36.2755C37.0076 35.8985 37.8477 34.9222 38.4114 33.5407C38.9713 32.1516 39.3129 30.2138 38.9824 29.7827Z" fill="#FF9900"/>
<path id="Vector_4" fill-rule="evenodd" clip-rule="evenodd" d="M23.5477 16.57C23.5477 18.5919 23.5987 20.2781 22.5768 22.0737C21.7519 23.5337 20.4453 24.4315 18.9854 24.4315C16.9926 24.4315 15.832 22.9132 15.832 20.6723C15.832 16.2487 19.7955 15.4458 23.5477 15.4458V16.57ZM28.7814 29.2201C28.4382 29.5266 27.9419 29.5486 27.5551 29.3441C25.8324 27.9135 25.5257 27.2492 24.5769 25.8842C21.7301 28.7894 19.7154 29.658 16.0218 29.658C11.6567 29.658 8.25507 26.9644 8.25507 21.5701C8.25507 17.3584 10.54 14.4896 13.788 13.0882C16.6058 11.8471 20.5402 11.6282 23.5477 11.2852V10.6136C23.5477 9.37989 23.6424 7.92002 22.9199 6.85436C22.2847 5.89809 21.0731 5.50389 20.0072 5.50389C18.0292 5.50389 16.2626 6.51847 15.832 8.62072C15.7443 9.08801 15.4013 9.54791 14.9342 9.56976L9.89742 9.02969C9.47413 8.9346 9.007 8.59164 9.12378 7.94187C10.2844 1.8396 15.7953 0 20.7298 0C23.2555 0 26.5548 0.671618 28.5476 2.58415C31.0733 4.94182 30.8324 8.08789 30.8324 11.5114V19.5993C30.8324 22.03 31.8397 23.0957 32.7886 24.4097C33.1243 24.8768 33.1974 25.439 32.774 25.7892C31.7156 26.6724 29.8323 28.3149 28.7958 29.2347L28.7812 29.2201" fill="white"/>
</g>
</g>
</g>
</g>
</g>
</g>
</g>
</svg>
