<svg width="30" height="27" viewBox="0 0 30 27" fill="none" xmlns="http://www.w3.org/2000/svg">
<rect width="30" height="27" fill="#1E1E1E"/>
<g id="01">
<rect width="1440" height="3149" transform="translate(-370 -245.749)" fill="#111322"/>
<g id="Frame 21059">
<g id="Frame 20970">
<g id="Frame 20969">
<g id="Frame 21060">
<g id="Frame 21063">
<g id="Frame 21064">
<rect x="-10" y="-11.7491" width="50" height="50" rx="25" fill="black"/>
<g id="Frame 21061">
<path id="Vector" d="M14.9459 2.38928L15.7808 0.946231C16.2962 0.0443241 17.4455 -0.259748 18.3474 0.255628C19.2493 0.771003 19.5533 1.92029 19.038 2.8222L10.993 16.7476H16.8115C18.6978 16.7476 19.7543 18.9638 18.9349 20.4996H1.87597C0.834908 20.4996 0 19.6647 0 18.6236C0 17.5825 0.834908 16.7476 1.87597 16.7476H6.65865L12.7813 6.13606L10.8693 2.81704C10.3539 1.91514 10.658 0.776157 11.5599 0.250474C12.4618 -0.264901 13.6008 0.03917 14.1264 0.941077L14.9459 2.38928ZM7.71002 22.4322L5.9062 25.5606C5.39083 26.4625 4.24154 26.7665 3.33963 26.2512C2.43773 25.7358 2.13365 24.5865 2.64903 23.6846L3.98901 21.3654C5.50421 20.8964 6.73596 21.2572 7.71002 22.4322ZM23.2434 16.7579H28.124C29.1651 16.7579 30 17.5929 30 18.6339C30 19.675 29.1651 20.5099 28.124 20.5099H25.4132L27.2427 23.6846C27.7581 24.5865 27.454 25.7255 26.5521 26.2512C25.6502 26.7665 24.5112 26.4625 23.9856 25.5606C20.9036 20.2161 18.5896 16.2168 17.0538 13.5523C15.4819 10.8414 16.6054 8.12026 17.7134 7.19773C18.9452 9.31077 20.7851 12.5009 23.2434 16.7579Z" fill="url(#paint0_linear_0_1)"/>
</g>
</g>
</g>
</g>
</g>
</g>
</g>
</g>
<defs>
<linearGradient id="paint0_linear_0_1" x1="15" y1="0" x2="15" y2="26.5016" gradientUnits="userSpaceOnUse">
<stop stop-color="#18BFFB"/>
<stop offset="1" stop-color="#2072F3"/>
</linearGradient>
</defs>
</svg>
