<svg width="35" height="31" viewBox="0 0 35 31" fill="none" xmlns="http://www.w3.org/2000/svg">
<rect width="35" height="31" fill="#1E1E1E"/>
<g id="01">
<rect width="1440" height="3149" transform="translate(-679.5 -270.541)" fill="#111322"/>
<g id="Frame 21059">
<g id="Frame 21099">
<g id="Frame 21107">
<rect x="-14.5" y="-16.5408" width="64" height="64" rx="32" fill="#0D0E1A"/>
<g id="Frame 21061">
<g id="logos / appstore">
<path id="Vector" d="M17.4369 2.7875L18.4109 1.10394C19.0122 0.0517114 20.353 -0.303039 21.4053 0.298232C22.4575 0.899503 22.8122 2.24034 22.211 3.29256L12.8251 19.5389H19.6135C21.8141 19.5389 23.0467 22.1244 22.0907 23.9162H2.18863C0.97406 23.9162 0 22.9421 0 21.7275C0 20.513 0.97406 19.5389 2.18863 19.5389H7.76843L14.9115 7.15874L12.6808 3.28655C12.0795 2.23433 12.4343 0.905517 13.4865 0.29222C14.5387 -0.309051 15.8675 0.0456984 16.4808 1.09792L17.4369 2.7875ZM8.99502 26.1709L6.89057 29.8207C6.2893 30.8729 4.94846 31.2276 3.89624 30.6264C2.84401 30.0251 2.48926 28.6842 3.09053 27.632L4.65384 24.9263C6.42158 24.3791 7.85862 24.8 8.99502 26.1709ZM27.1173 19.5509H32.8114C34.0259 19.5509 35 20.525 35 21.7396C35 22.9541 34.0259 23.9282 32.8114 23.9282H29.6487L31.7832 27.632C32.3845 28.6842 32.0297 30.0131 30.9775 30.6264C29.9253 31.2276 28.5965 30.8729 27.9832 29.8207C24.3876 23.5855 21.6879 18.9196 19.8961 15.811C18.0622 12.6483 19.373 9.47363 20.6657 8.39736C22.1027 10.8626 24.2493 14.5844 27.1173 19.5509Z" fill="url(#paint0_linear_0_1)"/>
</g>
</g>
</g>
</g>
</g>
</g>
<defs>
<linearGradient id="paint0_linear_0_1" x1="17.5" y1="0" x2="17.5" y2="30.9186" gradientUnits="userSpaceOnUse">
<stop stop-color="#18BFFB"/>
<stop offset="1" stop-color="#2072F3"/>
</linearGradient>
</defs>
</svg>
