<svg width="40" height="24" viewBox="0 0 40 24" fill="none" xmlns="http://www.w3.org/2000/svg">
<g id="01">
<g id="Frame 21059">
<g id="Frame 21099">
<g id="Frame 21111">
<g id="Frame 21061">
<g id="logos / best-buy" clip-path="url(#clip0_0_1)">
<path id="Vector" d="M31.9 17.2683H39.7325V23.6663H31.8975L29.9475 21.7946V19.1553L31.9 17.2683Z" fill="#FFF200"/>
<path id="Vector_2" d="M31.5075 20.4635C31.5075 20.6828 31.335 20.8587 31.12 20.8587C30.905 20.8587 30.7325 20.6828 30.7325 20.4635C30.7325 20.2442 30.905 20.0682 31.12 20.0682C31.3325 20.0682 31.5075 20.2467 31.5075 20.4635Z" fill="#1D252C"/>
<path id="Vector_3" d="M31.8 14.9988C31.8 14.7004 32.035 14.4582 32.33 14.4582C32.63 14.4582 32.86 14.6979 32.86 14.9962C32.86 15.2997 32.6275 15.5343 32.33 15.5343C32.0375 15.5343 31.8 15.3048 31.8 14.9988ZM32.79 14.9962C32.79 14.7234 32.595 14.5245 32.33 14.5245C32.0675 14.5245 31.8725 14.7259 31.8725 14.9988C31.8725 15.2742 32.075 15.468 32.33 15.468C32.59 15.468 32.79 15.2716 32.79 14.9962ZM32.1525 14.7081H32.33C32.45 14.7081 32.5275 14.7616 32.5275 14.8713V14.8738C32.5275 14.958 32.475 15.0039 32.4 15.0192L32.56 15.2665H32.4725L32.32 15.0319H32.2375V15.2665H32.155L32.1525 14.7081ZM32.3325 14.9707C32.41 14.9707 32.4475 14.9401 32.4475 14.8764V14.8738C32.4475 14.8024 32.4075 14.7795 32.3325 14.7795H32.2375V14.9707H32.3325ZM7.55252 5.32151L7.70502 5.26541C9.18502 4.45451 9.43752 2.44766 7.99502 1.34861C7.35002 0.823305 6.47252 0.560655 5.35752 0.560655H0.525024V10.6612H5.64252C6.95502 10.6612 9.67252 10.4113 9.67252 7.77206C9.67002 5.75501 7.60002 5.33936 7.55252 5.32151ZM3.72502 2.92706H4.90502C5.34002 2.91686 5.71252 3.22796 5.70752 3.66656C5.71252 4.10771 5.33752 4.41626 4.90502 4.40606H3.72502V2.92706ZM5.93002 8.05766C5.74502 8.23616 5.51252 8.32286 5.23502 8.32286H3.72502V6.50981H5.23252C6.05252 6.46391 6.55002 7.47881 5.93002 8.05766ZM10.0975 16.5007L10.25 16.4446C11.73 15.6337 11.9825 13.6269 10.54 12.5278C9.89503 12.0025 9.01502 11.7399 7.90252 11.7399H3.07752V21.8404H8.18502C9.49752 21.8404 12.215 21.5905 12.215 18.9513C12.215 16.9342 10.145 16.5211 10.0975 16.5007ZM6.28002 14.1063H7.45002C7.88502 14.0961 8.25752 14.4072 8.25502 14.8458C8.25752 15.2869 7.88502 15.5955 7.45002 15.5853H6.28002V14.1063ZM8.47502 19.2394C8.29002 19.4179 8.05752 19.5046 7.78002 19.5046H6.28002V17.6916H7.78002C8.59752 17.6457 9.09503 18.6606 8.47502 19.2394ZM17.87 8.20811H13.0825V6.62456H16.99V4.31426H13.0825V3.01886H17.88V0.558105H9.88002V10.6587H17.87V8.20811ZM26.0575 0.558105V3.01631H28.675V10.6587H31.8575V3.01631H34.475V0.558105H26.0575Z" fill="white"/>
<path id="Vector_4" d="M22.4375 8.04753C21.7375 8.64168 20.4175 7.98378 19.8975 7.44063L18.0075 9.27153L18.1275 9.39393C19.805 11.082 23.3425 11.5844 25.1225 9.95748C26.5825 8.78193 26.63 6.25488 25.1125 5.21703C24.54 4.84473 23.7625 4.48773 23.12 4.31943C22.7925 4.24293 22.46 4.13328 22.2375 4.00068C21.525 3.61053 22.13 2.87103 22.77 2.93988C23.4175 2.93988 23.8125 3.23568 24.0175 3.44988L25.9125 1.61388L25.8775 1.57308C24.35 0.0175806 21.0675 -0.21957 19.4725 1.23138C18.7475 1.87143 18.385 2.62623 18.385 3.48813C18.345 5.61483 20.1725 6.35178 21.8425 6.85158C22.1975 7.00458 22.6625 7.09893 22.7025 7.48143C22.7 7.70328 22.6125 7.89198 22.4375 8.04753ZM17.88 17.7426C17.8325 19.3466 15.5475 19.3466 15.5 17.7426V11.7425H12.295V17.5896C12.2875 20.0784 14.345 22.0623 16.775 21.9552C19.14 21.9552 21.055 20.0019 21.055 17.5896V11.745H17.88V17.7426ZM26.5325 15.1799L24.4325 11.745H21.2225L24.93 18.2399V21.8456H28.1325V18.2373L31.84 11.745H28.63L26.5325 15.1799Z" fill="white"/>
</g>
</g>
</g>
</g>
</g>
</g>
<defs>
<clipPath id="clip0_0_1">
<rect width="40" height="24" fill="white"/>
</clipPath>
</defs>
</svg>
