<svg width="96" height="20" viewBox="0 0 96 20" fill="none" xmlns="http://www.w3.org/2000/svg">
<g id="Frame" clip-path="url(#clip0_0_51)">
<path id="Vector" d="M74.69 0.88H69.39L90.64 19.99H95.94L74.69 0.88ZM80.83 14.48L74.7 19.99H69.4L75.52 14.48H80.83ZM89.82 6.39L95.95 0.88H90.65L84.52 6.39H89.82ZM13.28 0.88L11.11 3.99L22.18 19.99H26.56L13.28 0.88ZM7.66 8.97H12L4.38 19.99H0L7.66 8.97ZM53.24 0.88L51.07 3.99L62.14 19.99H66.52L53.24 0.88ZM47.62 8.97H51.96L44.34 19.99H39.96L47.62 8.97ZM35.23 0.88L35.24 12.58C35.23 14.48 34.34 16.85 31.35 17.05H30.26V19.99L31.83 20C33.6391 19.9599 35.3626 19.2218 36.64 17.94C37.9906 16.4112 38.7154 14.4295 38.67 12.39V0.88H35.23Z" fill="black"/>
</g>
<defs>
<clipPath id="clip0_0_51">
<rect width="96" height="20" fill="white"/>
</clipPath>
</defs>
</svg>
