<svg width="30" height="12" viewBox="0 0 30 12" fill="none" xmlns="http://www.w3.org/2000/svg">
<rect width="30" height="12" fill="#1E1E1E"/>
<g id="01">
<rect width="1440" height="3149" transform="translate(-94 -1127)" fill="#111322"/>
<g id="Frame 21061">
<g id="Frame 21091">
<rect x="-9" y="-18" width="169" height="48" rx="24" fill="#AB0DFF" fill-opacity="0.2"/>
<g id="Frame 21062">
<rect x="-5" y="-14" width="40" height="40" rx="20" fill="black"/>
<g id="Frame 21061_2">
<g id="logos / ebay" clip-path="url(#clip0_0_1)">
<g id="g4">
<path id="path1" d="M18.9923 6.36402C17.6292 6.40861 16.7822 6.65414 16.7822 7.55036C16.7822 8.13055 17.2456 8.75954 18.4221 8.75954C19.9994 8.75954 20.8414 7.90138 20.8414 6.49389L20.8415 6.33908C20.2885 6.33908 19.6065 6.3439 18.9923 6.36402ZM22.3449 8.2236C22.3449 8.66027 22.3575 9.09132 22.3957 9.47947H20.9973C20.96 9.15986 20.9464 8.84228 20.9464 8.53425C20.1903 9.46189 19.291 9.72857 18.0435 9.72857C16.1932 9.72857 15.2025 8.7524 15.2025 7.62331C15.2025 5.98802 16.55 5.41144 18.8892 5.35795C19.5289 5.34337 20.2474 5.34121 20.8414 5.34121L20.8414 5.18143C20.8414 4.08666 20.138 3.63653 18.9193 3.63653C18.0146 3.63653 17.3478 4.01024 17.279 4.65602H15.6995C15.8667 3.04589 17.5615 2.63867 19.0517 2.63867C20.8369 2.63867 22.3449 3.27267 22.3449 5.15739L22.3449 8.2236Z" fill="#FFBC13"/>
<path id="path2" d="M5.98909 5.5655C5.93076 4.16181 4.9157 3.63653 3.83085 3.63653C2.66102 3.63653 1.72705 4.2274 1.56344 5.5655H5.98909ZM1.53103 6.56337C1.61216 7.92533 2.55313 8.73083 3.84696 8.73083C4.74337 8.73083 5.54075 8.36627 5.80774 7.57319H7.35827C7.05671 9.18237 5.34365 9.72857 3.86918 9.72857C1.18819 9.72857 0 8.25484 0 6.2674C0 4.07957 1.22897 2.63867 3.89364 2.63867C6.0146 2.63867 7.56864 3.74657 7.56864 6.16472V6.56337H1.53103Z" fill="#F12C2D"/>
<path id="path3" d="M11.425 8.70237C12.8221 8.70237 13.7782 7.6986 13.7782 6.18384C13.7782 4.66922 12.8221 3.66531 11.425 3.66531C10.0356 3.66531 9.07165 4.66922 9.07165 6.18384C9.07165 7.6986 10.0356 8.70237 11.425 8.70237ZM7.56857 0H9.07165L9.0715 3.76924C9.8082 2.89309 10.8232 2.6387 11.8222 2.6387C13.4972 2.6387 15.3577 3.76691 15.3577 6.20288C15.3577 8.24272 13.8781 9.7286 11.7943 9.7286C10.7036 9.7286 9.67688 9.33805 9.04369 8.5643C9.04369 8.87335 9.02641 9.18484 8.99254 9.4795H7.5174C7.54305 9.00311 7.56856 8.40996 7.56856 7.93L7.56857 0Z" fill="#0968F6"/>
<path id="path4" d="M30 2.88831L25.3517 12H23.6685L25.0049 9.4699L21.5067 2.88831H23.2655L25.8397 8.03057L28.4065 2.88831H30Z" fill="#93C822"/>
</g>
</g>
</g>
</g>
</g>
</g>
</g>
<defs>
<clipPath id="clip0_0_1">
<rect width="30" height="12" fill="white"/>
</clipPath>
</defs>
</svg>
