<svg width="24" height="24" viewBox="0 0 24 24" fill="none" xmlns="http://www.w3.org/2000/svg">
<rect width="24" height="24" fill="#1E1E1E"/>
<g id="01">
<rect width="1440" height="3149" transform="translate(-225 -1416)" fill="#111322"/>
<g id="Frame 21061">
<g id="Frame 21092">
<rect x="-12" y="-12" width="169" height="48" rx="24" fill="#AB0DFF" fill-opacity="0.2"/>
<g id="Frame 21062">
<rect x="-8" y="-8" width="40" height="40" rx="20" fill="black"/>
<g id="Frame 21061_2">
<g id="logos / etsy" clip-path="url(#clip0_0_1)">
<path id="Vector" d="M9.01744 4.73211V11.4927C9.01744 11.4927 11.3996 11.4927 12.6745 11.3959C13.6771 11.2203 13.8617 11.1236 14.0462 10.121L14.4153 8.6525H15.5057L15.3211 11.8617L15.4179 15.1497H14.3185L14.0462 13.8658C13.7739 12.9521 13.4048 12.7664 12.6745 12.6787C11.7608 12.5819 9.01744 12.5819 9.01744 12.5819V18.2521C9.01744 19.3424 9.57107 19.8083 10.846 19.8083H14.6876C15.8748 19.8083 17.0608 19.7115 17.8001 17.9798L18.7937 15.7821H19.7164C19.6196 16.239 19.1628 20.2652 19.075 21.171C19.075 21.171 15.6024 21.0832 14.143 21.0832H7.55798L3.62859 21.171V20.1774L4.9035 19.8961C5.82621 19.7115 6.09853 19.4392 6.09853 18.7089C6.09853 18.7089 6.1953 16.239 6.1953 12.1239C6.1953 8.01898 6.09853 5.54792 6.09853 5.54792C6.09853 4.72986 5.82621 4.54531 4.9035 4.36077L3.62859 4.09071V3.08811L7.47021 3.16687H14.7844C16.2438 3.16687 18.7048 2.90356 18.7048 2.90356C18.7048 2.90356 18.617 4.45079 18.5202 8.10788H17.5176L17.1486 6.82396C16.7885 5.17996 16.2427 4.3619 15.2322 4.3619H9.4833C9.01744 4.36302 9.01744 4.45079 9.01744 4.73211Z" fill="#F45800"/>
</g>
</g>
</g>
</g>
</g>
</g>
<defs>
<clipPath id="clip0_0_1">
<rect width="24" height="24" fill="white"/>
</clipPath>
</defs>
</svg>
