<svg width="40" height="40" viewBox="0 0 40 40" fill="none" xmlns="http://www.w3.org/2000/svg">
<rect width="40" height="40" fill="#1E1E1E"/>
<g id="01">
<rect width="1440" height="3149" transform="translate(-1134.99 -434.619)" fill="#111322"/>
<g id="Frame 21059">
<g id="Frame 21099">
<g id="Frame 21067">
<rect x="-12" y="-12" width="64" height="64" rx="32" fill="#0D0E1A"/>
<g id="Frame 21061">
<g id="logos /  facebook" clip-path="url(#clip0_0_1)">
<g id="g17">
<g id="g19">
<g id="Clip path group">
<mask id="mask0_0_1" style="mask-type:luminance" maskUnits="userSpaceOnUse" x="-8" y="-8" width="56" height="56">
<g id="clipPath25">
<path id="path23" d="M-8 -7.99995H48V48H-8V-7.99995Z" fill="white"/>
</g>
</mask>
<g mask="url(#mask0_0_1)">
<g id="g21">
<g id="g27">
<path id="path29" d="M40 20C40 8.95434 31.0457 2.67029e-05 20 2.67029e-05C8.95432 2.67029e-05 0 8.95434 0 20C0 29.3796 6.4572 37.2498 15.1685 39.411V26.1117H11.0443V20H15.1685V17.3665C15.1685 10.5591 18.2491 7.40394 24.9323 7.40394C26.1994 7.40394 28.3857 7.65234 29.2801 7.90082V13.4411C28.808 13.3915 27.9882 13.3666 26.9695 13.3666C23.6901 13.3666 22.423 14.6088 22.423 17.8386V20H28.9557L27.8334 26.1117H22.423V39.8535C32.3258 38.6574 40 30.2254 40 20Z" fill="#0866FF"/>
</g>
<g id="g31">
<path id="path33" d="M27.8334 26.1117L28.9557 20H22.423V17.8385C22.423 14.6087 23.6901 13.3666 26.9695 13.3666C27.9881 13.3666 28.808 13.3914 29.2801 13.4411V7.90083C28.3857 7.65235 26.1994 7.40387 24.9323 7.40387C18.2492 7.40387 15.1685 10.5591 15.1685 17.3665V20H11.0443V26.1117H15.1685V39.411C16.7159 39.7949 18.3339 40 20 40C20.8203 40 21.6286 39.9494 22.423 39.8535V26.1117H27.8334Z" fill="white"/>
</g>
</g>
</g>
</g>
</g>
</g>
</g>
</g>
</g>
</g>
</g>
</g>
<defs>
<clipPath id="clip0_0_1">
<rect width="40" height="40" fill="white"/>
</clipPath>
</defs>
</svg>
