<svg width="28" height="40" viewBox="0 0 28 40" fill="none" xmlns="http://www.w3.org/2000/svg">
<rect width="28" height="40" fill="#1E1E1E"/>
<g id="01">
<rect width="1440" height="3149" transform="translate(-971.047 -231)" fill="#111322"/>
<g id="Frame 21059">
<g id="Frame 21099">
<g id="Frame 21068">
<rect x="-18.0469" y="-12" width="64" height="64" rx="32" fill="#0D0E1A"/>
<g id="Frame 21061">
<g id="logos / google-maps" clip-path="url(#clip0_0_1)">
<path id="Vector" d="M18.2011 0.665155C16.8708 0.241875 15.4195 0 13.938 0C9.67499 0 5.83524 1.935 3.26532 4.98866L9.8564 10.5215L18.2011 0.665155Z" fill="#1A73E8"/>
<path id="Vector_2" d="M3.26531 4.98865C1.23961 7.40739 0 10.5518 0 13.938C0 16.5684 0.513983 18.6848 1.39078 20.5896L9.85639 10.5215L3.26531 4.98865Z" fill="#EA4335"/>
<path id="Vector_3" d="M13.9683 8.61679C16.9312 8.61679 19.3197 11.0053 19.3197 13.9683C19.3197 15.2683 18.836 16.4777 18.0499 17.415C18.0499 17.415 22.2525 12.3961 26.3643 7.52835C24.6712 4.26304 21.7385 1.78383 18.2011 0.665161L9.85638 10.5215C10.8541 9.37264 12.3054 8.61679 13.9683 8.61679Z" fill="#4285F4"/>
<path id="Vector_4" d="M13.9683 19.2894C11.0053 19.2894 8.61678 16.9009 8.61678 13.938C8.61678 12.6379 9.07029 11.4285 9.85639 10.5215L1.39078 20.5895C2.84202 23.7943 5.26077 26.3945 7.73998 29.6296L18.0499 17.3847C17.0522 18.5638 15.6009 19.2894 13.9683 19.2894Z" fill="#FBBC04"/>
<path id="Vector_5" d="M17.8685 33.0158C22.5246 25.7294 27.9365 22.4338 27.9365 13.9682C27.9365 11.6402 27.3621 9.46332 26.3643 7.52832L7.73999 29.6296C8.52608 30.6576 9.34241 31.8367 10.1285 33.0461C12.9705 37.4301 12.1844 40.0302 13.9985 40.0302C15.8126 40.0302 15.0265 37.3998 17.8685 33.0158Z" fill="#34A853"/>
</g>
</g>
</g>
</g>
</g>
</g>
<defs>
<clipPath id="clip0_0_1">
<rect width="27.9063" height="40" fill="white"/>
</clipPath>
</defs>
</svg>
