<svg width="29" height="32" viewBox="0 0 29 32" fill="none" xmlns="http://www.w3.org/2000/svg">
<rect width="29" height="32" fill="#1E1E1E"/>
<g id="01">
<rect width="1440" height="3149" transform="translate(-860.6 -102.11)" fill="#111322"/>
<g id="Frame 21059">
<g id="Frame 21099">
<g id="Frame 21108">
<rect x="-17.6" y="-16.1098" width="64" height="64" rx="32" fill="#0D0E1A"/>
<g id="Frame 21061">
<g id="logos / google-play" clip-path="url(#clip0_0_1)">
<g id="Capa 2">
<g id="Capa 1">
<path id="Vector" d="M13.4512 15.1799L0.119202 29.1477C0.272264 29.676 0.543186 30.1627 0.911572 30.5711C1.27996 30.9796 1.7362 31.2991 2.24596 31.5057C2.75572 31.7123 3.3057 31.8005 3.8545 31.7638C4.40329 31.727 4.9366 31.5663 5.41427 31.2936L20.4153 22.7499L13.4512 15.1799Z" fill="#EA4335"/>
<path id="Vector_2" d="M26.9323 12.8055L20.4451 9.09003L13.1433 15.4978L20.4749 22.73L26.9124 19.0543C27.3236 18.8406 27.6885 18.5478 27.9861 18.1926C28.2837 17.8374 28.5082 17.427 28.6467 16.9848C28.7852 16.5425 28.8349 16.0773 28.793 15.6159C28.7511 15.1544 28.6185 14.7057 28.4026 14.2957C28.0658 13.6613 27.5468 13.1423 26.9124 12.8055H26.9323Z" fill="#FBBC04"/>
<path id="Vector_3" d="M0.119214 2.64258C0.039889 2.94075 -0.000187235 3.248 6.57617e-07 3.55655V28.2338C-0.000187235 28.5423 0.039889 28.8495 0.119214 29.1477L13.9082 15.5375L0.119214 2.64258Z" fill="#4285F4"/>
<path id="Vector_4" d="M13.5506 15.8951L20.4451 9.09004L5.46394 0.506665C4.90016 0.177022 4.25927 0.00223447 3.6062 7.10526e-06C2.81738 -0.00155609 2.04969 0.254854 1.42015 0.73015C0.790604 1.20545 0.333741 1.87356 0.119202 2.63264L13.5506 15.8951Z" fill="#34A853"/>
</g>
</g>
</g>
</g>
</g>
</g>
</g>
</g>
<defs>
<clipPath id="clip0_0_1">
<rect width="28.8" height="31.7803" fill="white"/>
</clipPath>
</defs>
</svg>
