<svg width="30" height="30" viewBox="0 0 30 30" fill="none" xmlns="http://www.w3.org/2000/svg">
<rect width="30" height="30" fill="#1E1E1E"/>
<g id="01">
<rect width="1440" height="3149" transform="translate(-262 -244)" fill="#111322"/>
<g id="Frame 21059">
<g id="Frame 20970">
<g id="Frame 20969">
<g id="Frame 21060">
<g id="Frame 21063">
<g id="Frame 21062">
<rect x="-10" y="-10" width="50" height="50" rx="25" fill="black"/>
<g id="Frame 21061">
<g id="Group 1">
<g id="Google__G__logo 1">
<path id="Vector" d="M28.2 15.3125C28.2 14.3375 28.1125 13.4 27.95 12.5H15V17.825H22.4C22.075 19.5375 21.1 20.9875 19.6375 21.9625V25.425H24.1C26.7 23.025 28.2 19.5 28.2 15.3125Z" fill="#4285F4"/>
<path id="Vector_2" d="M15 28.75C18.7125 28.75 21.825 27.525 24.1 25.425L19.6375 21.9625C18.4125 22.7875 16.85 23.2875 15 23.2875C11.425 23.2875 8.38749 20.875 7.29999 17.625H2.72499V21.175C4.98749 25.6625 9.62499 28.75 15 28.75Z" fill="#34A853"/>
<path id="Vector_3" d="M7.3 17.6124C7.025 16.7874 6.8625 15.9124 6.8625 14.9999C6.8625 14.0874 7.025 13.2124 7.3 12.3874V8.8374H2.725C1.7875 10.6874 1.25 12.7749 1.25 14.9999C1.25 17.2249 1.7875 19.3124 2.725 21.1624L6.2875 18.3874L7.3 17.6124Z" fill="#FBBC05"/>
<path id="Vector_4" d="M15 6.725C17.025 6.725 18.825 7.425 20.2625 8.775L24.2 4.8375C21.8125 2.6125 18.7125 1.25 15 1.25C9.62499 1.25 4.98749 4.3375 2.72499 8.8375L7.29999 12.3875C8.38749 9.1375 11.425 6.725 15 6.725Z" fill="#EA4335"/>
</g>
</g>
</g>
</g>
</g>
</g>
</g>
</g>
</g>
</g>
</svg>
