<svg width="40" height="40" viewBox="0 0 40 40" fill="none" xmlns="http://www.w3.org/2000/svg">

<g id="01">

<g id="Frame 21059">
<g id="Frame 21099">
<g id="Frame 21104">

<g id="Frame 21061">
<g id="logos / google">
<path id="Vector" d="M37.6 20.4166C37.6 19.1166 37.4833 17.8666 37.2667 16.6666H20V23.7666H29.8667C29.4333 26.05 28.1333 27.9833 26.1833 29.2833V33.9H32.1333C35.6 30.7 37.6 26 37.6 20.4166Z" fill="#4285F4"/>
<path id="Vector_2" d="M20 38.3333C24.95 38.3333 29.1 36.7 32.1333 33.9L26.1833 29.2833C24.55 30.3833 22.4666 31.05 20 31.05C15.2333 31.05 11.1833 27.8333 9.7333 23.5H3.6333V28.2333C6.64997 34.2167 12.8333 38.3333 20 38.3333Z" fill="#34A853"/>
<path id="Vector_3" d="M9.73335 23.4832C9.36669 22.3832 9.15002 21.2165 9.15002 19.9999C9.15002 18.7832 9.36669 17.6165 9.73335 16.5165V11.7832H3.63335C2.38335 14.2499 1.66669 17.0332 1.66669 19.9999C1.66669 22.9665 2.38335 25.7499 3.63335 28.2165L8.38335 24.5165L9.73335 23.4832Z" fill="#FBBC05"/>
<path id="Vector_4" d="M20 8.96663C22.7 8.96663 25.1 9.89996 27.0166 11.7L32.2666 6.44996C29.0833 3.48329 24.95 1.66663 20 1.66663C12.8333 1.66663 6.64997 5.78329 3.6333 11.7833L9.7333 16.5166C11.1833 12.1833 15.2333 8.96663 20 8.96663Z" fill="#EA4335"/>
</g>
</g>
</g>
</g>
</g>
</g>
</svg>
