<svg width="35" height="35" viewBox="0 0 35 35" fill="none" xmlns="http://www.w3.org/2000/svg">
<rect width="35" height="35" fill="#1E1E1E"/>
<g id="01">
<rect width="1440" height="3149" transform="translate(-1228.5 -346.5)" fill="#111322"/>
<g id="Frame 21059">
<g id="Frame 21099">
<g id="Frame 21106">
<rect x="-14.5" y="-14.5" width="64" height="64" rx="32" fill="#0D0E1A"/>
<g id="Frame 21061">
<g id="logos / instagram" clip-path="url(#clip0_0_1)">
<g id="Group">
<path id="Vector" d="M17.5057 0C10.1996 0 8.06287 0.00754005 7.64752 0.0419999C6.1482 0.166664 5.21523 0.402803 4.19879 0.908986C3.41548 1.29807 2.79771 1.74907 2.18801 2.38127C1.07765 3.53422 0.404698 4.95264 0.161085 6.63871C0.0426514 7.45724 0.00819129 7.62417 0.00119349 11.8052C-0.00149186 13.1988 0.00119349 15.033 0.00119349 17.4931C0.00119349 24.7953 0.00926274 26.9305 0.044265 27.3451C0.165397 28.8045 0.394194 29.7226 0.878722 30.727C1.80471 32.6494 3.5732 34.0926 5.65667 34.6311C6.37808 34.8169 7.17485 34.9192 8.19773 34.9677C8.63112 34.9865 13.0484 35 17.4683 35C21.8882 35 26.3082 34.9946 26.7308 34.9731C27.9152 34.9173 28.6029 34.825 29.3634 34.6284C31.4603 34.0872 33.1965 32.6656 34.1413 30.7162C34.6164 29.7361 34.8573 28.7829 34.9664 27.3998C34.99 27.0982 35 22.2902 35 17.4886C35 12.6861 34.9892 7.88697 34.9655 7.5854C34.8552 6.1799 34.6143 5.23483 34.1238 4.23589C33.7214 3.41817 33.2746 2.80749 32.6258 2.18311C31.4681 1.07701 30.0522 0.403875 28.365 0.160473C27.5475 0.0422646 27.3846 0.00726236 23.2016 0H17.5057Z" fill="url(#paint0_radial_0_1)"/>
<path id="Vector_2" d="M17.5057 0C10.1996 0 8.06287 0.00754005 7.64752 0.0419999C6.1482 0.166664 5.21523 0.402803 4.19879 0.908986C3.41548 1.29807 2.79771 1.74907 2.18801 2.38127C1.07765 3.53422 0.404698 4.95264 0.161085 6.63871C0.0426514 7.45724 0.00819129 7.62417 0.00119349 11.8052C-0.00149186 13.1988 0.00119349 15.033 0.00119349 17.4931C0.00119349 24.7953 0.00926274 26.9305 0.044265 27.3451C0.165397 28.8045 0.394194 29.7226 0.878722 30.727C1.80471 32.6494 3.5732 34.0926 5.65667 34.6311C6.37808 34.8169 7.17485 34.9192 8.19773 34.9677C8.63112 34.9865 13.0484 35 17.4683 35C21.8882 35 26.3082 34.9946 26.7308 34.9731C27.9152 34.9173 28.6029 34.825 29.3634 34.6284C31.4603 34.0872 33.1965 32.6656 34.1413 30.7162C34.6164 29.7361 34.8573 28.7829 34.9664 27.3998C34.99 27.0982 35 22.2902 35 17.4886C35 12.6861 34.9892 7.88697 34.9655 7.5854C34.8552 6.1799 34.6143 5.23483 34.1238 4.23589C33.7214 3.41817 33.2746 2.80749 32.6258 2.18311C31.4681 1.07701 30.0522 0.403875 28.365 0.160473C27.5475 0.0422646 27.3846 0.00726236 23.2016 0H17.5057Z" fill="url(#paint1_radial_0_1)"/>
<path id="Vector_3" d="M17.5057 0C10.1996 0 8.06287 0.00754005 7.64752 0.0419999C6.1482 0.166664 5.21523 0.402803 4.19879 0.908986C3.41548 1.29807 2.79771 1.74907 2.18801 2.38127C1.07765 3.53422 0.404698 4.95264 0.161085 6.63871C0.0426514 7.45724 0.00819129 7.62417 0.00119349 11.8052C-0.00149186 13.1988 0.00119349 15.033 0.00119349 17.4931C0.00119349 24.7953 0.00926274 26.9305 0.044265 27.3451C0.165397 28.8045 0.394194 29.7226 0.878722 30.727C1.80471 32.6494 3.5732 34.0926 5.65667 34.6311C6.37808 34.8169 7.17485 34.9192 8.19773 34.9677C8.63112 34.9865 13.0484 35 17.4683 35C21.8882 35 26.3082 34.9946 26.7308 34.9731C27.9152 34.9173 28.6029 34.825 29.3634 34.6284C31.4603 34.0872 33.1965 32.6656 34.1413 30.7162C34.6164 29.7361 34.8573 28.7829 34.9664 27.3998C34.99 27.0982 35 22.2902 35 17.4886C35 12.6861 34.9892 7.88697 34.9655 7.5854C34.8552 6.1799 34.6143 5.23483 34.1238 4.23589C33.7214 3.41817 33.2746 2.80749 32.6258 2.18311C31.4681 1.07701 30.0522 0.403875 28.365 0.160473C27.5475 0.0422646 27.3846 0.00726236 23.2016 0H17.5057Z" fill="url(#paint2_radial_0_1)"/>
<path id="Vector_4" d="M17.5057 0C10.1996 0 8.06287 0.00754005 7.64752 0.0419999C6.1482 0.166664 5.21523 0.402803 4.19879 0.908986C3.41548 1.29807 2.79771 1.74907 2.18801 2.38127C1.07765 3.53422 0.404698 4.95264 0.161085 6.63871C0.0426514 7.45724 0.00819129 7.62417 0.00119349 11.8052C-0.00149186 13.1988 0.00119349 15.033 0.00119349 17.4931C0.00119349 24.7953 0.00926274 26.9305 0.044265 27.3451C0.165397 28.8045 0.394194 29.7226 0.878722 30.727C1.80471 32.6494 3.5732 34.0926 5.65667 34.6311C6.37808 34.8169 7.17485 34.9192 8.19773 34.9677C8.63112 34.9865 13.0484 35 17.4683 35C21.8882 35 26.3082 34.9946 26.7308 34.9731C27.9152 34.9173 28.6029 34.825 29.3634 34.6284C31.4603 34.0872 33.1965 32.6656 34.1413 30.7162C34.6164 29.7361 34.8573 28.7829 34.9664 27.3998C34.99 27.0982 35 22.2902 35 17.4886C35 12.6861 34.9892 7.88697 34.9655 7.5854C34.8552 6.1799 34.6143 5.23483 34.1238 4.23589C33.7214 3.41817 33.2746 2.80749 32.6258 2.18311C31.4681 1.07701 30.0522 0.403875 28.365 0.160473C27.5475 0.0422646 27.3846 0.00726236 23.2016 0H17.5057Z" fill="url(#paint3_radial_0_1)"/>
<path id="Vector_5" d="M17.5071 4.49402C13.9729 4.49402 13.5294 4.50946 12.1413 4.57258C10.7559 4.63597 9.81028 4.85514 8.98285 5.17672C8.12696 5.50884 7.40092 5.95313 6.67761 6.67618C5.95375 7.39898 5.50912 8.12446 5.17566 8.97945C4.85304 9.80654 4.63343 10.7517 4.57109 12.1355C4.50901 13.5226 4.49274 13.9661 4.49274 17.4976C4.49274 21.0292 4.50847 21.471 4.57135 22.8581C4.63507 24.2424 4.8544 25.1873 5.17593 26.0142C5.50858 26.8694 5.9532 27.5949 6.67679 28.3177C7.39985 29.041 8.12588 29.4864 8.98122 29.8185C9.80918 30.1401 10.7551 30.3593 12.1402 30.4227C13.5283 30.4858 13.9715 30.5012 17.5055 30.5012C21.0399 30.5012 21.4821 30.4858 22.8702 30.4226C24.2555 30.3593 25.2023 30.1401 26.0302 29.8185C26.8858 29.4864 27.6108 29.041 28.3338 28.3177C29.0577 27.5949 29.5023 26.8694 29.8358 26.0144C30.1557 25.1873 30.3753 24.2422 30.4404 22.8584C30.5027 21.4713 30.519 21.0292 30.519 17.4976C30.519 13.966 30.5027 13.5229 30.4404 12.1358C30.3753 10.7515 30.1557 9.80654 29.8358 8.97972C29.5023 8.12446 29.0577 7.39896 28.3338 6.67618C27.61 5.95285 26.8861 5.50857 26.0294 5.17671C25.1998 4.85514 24.2536 4.63597 22.8683 4.57258C21.4802 4.50946 21.0383 4.49402 17.503 4.49402H17.5071ZM16.3397 6.83738C16.6862 6.83684 17.0728 6.83738 17.5071 6.83738C20.9816 6.83738 21.3934 6.84984 22.7655 6.91215C24.0343 6.97013 24.7229 7.18197 25.1817 7.35995C25.7889 7.59564 26.2219 7.87739 26.6771 8.33251C27.1326 8.78765 27.4145 9.2211 27.6509 9.82793C27.829 10.2858 28.0413 10.9739 28.0991 12.2417C28.1614 13.6125 28.175 14.0243 28.175 17.4946C28.175 20.965 28.1614 21.3768 28.0991 22.7476C28.041 24.0154 27.829 24.7035 27.6509 25.1613C27.4151 25.7682 27.1326 26.2003 26.6771 26.6551C26.2216 27.1103 25.7892 27.392 25.1817 27.6277C24.7235 27.8065 24.0343 28.0178 22.7655 28.0758C21.3937 28.1381 20.9816 28.1516 17.5071 28.1516C14.0323 28.1516 13.6205 28.1381 12.2486 28.0758C10.9799 28.0173 10.2912 27.8054 9.83224 27.6274C9.22495 27.3917 8.79117 27.11 8.33572 26.6549C7.88025 26.1997 7.5983 25.7674 7.36189 25.1603C7.18377 24.7024 6.97149 24.0143 6.91375 22.7465C6.85139 21.3757 6.83892 20.9639 6.83892 17.4914C6.83892 14.0189 6.85139 13.6093 6.91375 12.2385C6.97177 10.9706 7.18377 10.2825 7.36189 9.82414C7.59775 9.21731 7.88025 8.78385 8.33572 8.32873C8.79117 7.8736 9.22495 7.59186 9.83224 7.35563C10.291 7.17682 10.9799 6.96552 12.2486 6.90727C13.4491 6.85308 13.9143 6.83684 16.3397 6.83411L16.3397 6.83738ZM24.4535 8.99651C23.5913 8.99651 22.8918 9.69465 22.8918 10.5564C22.8918 11.4179 23.5913 12.1168 24.4535 12.1168C25.3156 12.1168 26.0151 11.4179 26.0151 10.5564C26.0151 9.69492 25.3156 8.99598 24.4534 8.99598L24.4535 8.99651ZM17.5071 10.8197C13.8165 10.8197 10.8242 13.8097 10.8242 17.4976C10.8242 21.1855 13.8165 24.1741 17.5071 24.1741C21.1977 24.1741 24.1889 21.1855 24.1889 17.4976C24.1889 13.8097 21.1974 10.8197 17.5068 10.8197H17.5071ZM17.5071 13.1631C19.9026 13.1631 21.8448 15.1036 21.8448 17.4976C21.8448 19.8914 19.9026 21.8321 17.5071 21.8321C15.1113 21.8321 13.1693 19.8914 13.1693 17.4976C13.1693 15.1036 15.1113 13.1631 17.5071 13.1631Z" fill="white"/>
</g>
</g>
</g>
</g>
</g>
</g>
</g>
<defs>
<radialGradient id="paint0_radial_0_1" cx="0" cy="0" r="1" gradientTransform="matrix(-21.5234 6.07011 -4.37329 -15.5066 33.8699 16.4049)" gradientUnits="userSpaceOnUse">
<stop stop-color="#FF005F"/>
<stop offset="1" stop-color="#FC01D8"/>
</radialGradient>
<radialGradient id="paint1_radial_0_1" cx="0" cy="0" r="1" gradientUnits="userSpaceOnUse" gradientTransform="translate(9.29661 37.6957) rotate(-90) scale(27.9377 29.6413)">
<stop stop-color="#FFCC00"/>
<stop offset="0.1242" stop-color="#FFCC00"/>
<stop offset="0.5672" stop-color="#FE4A05"/>
<stop offset="0.6942" stop-color="#FF0F3F"/>
<stop offset="1" stop-color="#FE0657" stop-opacity="0"/>
</radialGradient>
<radialGradient id="paint2_radial_0_1" cx="0" cy="0" r="1" gradientTransform="matrix(5.79886 -9.99163 13.008 7.5495 18.3844 34.5064)" gradientUnits="userSpaceOnUse">
<stop stop-color="#FFCC00"/>
<stop offset="1" stop-color="#FFCC00" stop-opacity="0"/>
</radialGradient>
<radialGradient id="paint3_radial_0_1" cx="0" cy="0" r="1" gradientTransform="matrix(-21.2871 5.9941 -2.04166 -7.25266 4.74875 1.42519)" gradientUnits="userSpaceOnUse">
<stop stop-color="#780CFF"/>
<stop offset="1" stop-color="#820BFF" stop-opacity="0"/>
</radialGradient>
<clipPath id="clip0_0_1">
<rect width="35" height="35" fill="white"/>
</clipPath>
</defs>
</svg>
