<svg width="39" height="39" viewBox="0 0 39 39" fill="none" xmlns="http://www.w3.org/2000/svg">
<rect width="39" height="39" fill="#1E1E1E"/>
<g id="01">
<rect width="1440" height="3149" transform="translate(-1075.24 -117.556)" fill="#111322"/>
<g id="Frame 21059">
<g id="Frame 21099">
<g id="Frame 21065">
<rect x="-12.8" y="-12.8" width="64" height="64" rx="32" fill="#0D0E1A"/>
<g id="Frame 21061">
<g id="logos / messenger" clip-path="url(#clip0_0_1)">
<g id="g2">
<path id="path1" d="M38.4 18.624C38.4 29.3255 30.0159 37.248 19.2 37.248C17.2576 37.248 15.3938 36.9919 13.642 36.5103C13.3015 36.4162 12.9397 36.4429 12.6167 36.585L8.80556 38.2675C7.80892 38.7078 6.6837 37.9988 6.65028 36.9095L6.5455 33.4936C6.53242 33.0731 6.34325 32.6793 6.02948 32.3995C2.29354 29.0583 0 24.2219 0 18.624C0 7.92297 8.38411 0 19.2 0C30.0159 0 38.4 7.92297 38.4 18.624Z" fill="#0866FF"/>
<path id="path2" d="M24.4132 23.9852L31.0979 13.6542C31.7701 12.6158 30.5251 11.4072 29.5071 12.1094L22.529 16.9226C22.2938 17.0851 21.9838 17.0894 21.7443 16.9342L15.5509 12.9272C15.0266 12.5881 14.3267 12.738 13.9878 13.2623L7.30258 23.5938C6.63037 24.6321 7.87536 25.8408 8.89333 25.1385L15.8729 20.3249C16.1081 20.1624 16.4181 20.158 16.6581 20.3132L22.8505 24.3203C23.3748 24.6593 24.0747 24.5095 24.4137 23.9852H24.4132Z" fill="white"/>
</g>
</g>
</g>
</g>
</g>
</g>
</g>
<defs>
<clipPath id="clip0_0_1">
<rect width="38.4" height="38.4" fill="white"/>
</clipPath>
</defs>
</svg>
