<svg width="84.3311" height="75.6818" viewBox="0 0 84.3311 75.6818" fill="none" xmlns="http://www.w3.org/2000/svg">
<g id="Group">
<path id="Vector" opacity="0.53" d="M20.5408 67.0315C22.3308 67.0315 23.7819 65.5804 23.7819 63.7904C23.7819 62.0005 22.3308 60.5494 20.5408 60.5494C18.7509 60.5494 17.2998 62.0005 17.2998 63.7904C17.2998 65.5804 18.7509 67.0315 20.5408 67.0315Z" fill="var(--fill-0, #FF0013)"/>
<path id="Vector_2" opacity="0.6" d="M20.5408 75.6817C22.3308 75.6817 23.7819 74.2306 23.7819 72.4407C23.7819 70.6507 22.3308 69.1997 20.5408 69.1997C18.7509 69.1997 17.2998 70.6507 17.2998 72.4407C17.2998 74.2306 18.7509 75.6817 20.5408 75.6817Z" fill="var(--fill-0, #50E213)"/>
<path id="Vector_3" d="M29.1906 67.0315C30.9806 67.0315 32.4316 65.5804 32.4316 63.7904C32.4316 62.0005 30.9806 60.5494 29.1906 60.5494C27.4006 60.5494 25.9496 62.0005 25.9496 63.7904C25.9496 65.5804 27.4006 67.0315 29.1906 67.0315Z" fill="var(--fill-0, #FF0013)"/>
<g id="Group_2">
<path id="Vector_4" opacity="0.4" d="M3.24102 6.48204C5.03099 6.48204 6.48203 5.03099 6.48203 3.24102C6.48203 1.45105 5.03099 0 3.24102 0C1.45106 0 0 1.45105 0 3.24102C0 5.03099 1.45106 6.48204 3.24102 6.48204Z" fill="var(--fill-0, #2F1FFF)"/>
<path id="Vector_5" opacity="0.47" d="M11.891 6.48207C13.681 6.48207 15.1321 5.03102 15.1321 3.24105C15.1321 1.45109 13.681 3.32919e-05 11.891 3.32919e-05C10.1011 3.32919e-05 8.65002 1.45109 8.65002 3.24105C8.65002 5.03102 10.1011 6.48207 11.891 6.48207Z" fill="var(--fill-0, #2F1FFF)"/>
<path id="Vector_6" opacity="0.53" d="M20.5408 6.48207C22.3308 6.48207 23.7819 5.03102 23.7819 3.24105C23.7819 1.45109 22.3308 3.32919e-05 20.5408 3.32919e-05C18.7509 3.32919e-05 17.2998 1.45109 17.2998 3.24105C17.2998 5.03102 18.7509 6.48207 20.5408 6.48207Z" fill="var(--fill-0, #2F1FFF)"/>
<path id="Vector_7" opacity="0.6" d="M29.1906 6.48207C30.9806 6.48207 32.4316 5.03102 32.4316 3.24105C32.4316 1.45109 30.9806 3.32919e-05 29.1906 3.32919e-05C27.4006 3.32919e-05 25.9496 1.45109 25.9496 3.24105C25.9496 5.03102 27.4006 6.48207 29.1906 6.48207Z" fill="var(--fill-0, #2F1FFF)"/>
<path id="Vector_8" opacity="0.67" d="M37.8406 6.48207C39.6306 6.48207 41.0816 5.03102 41.0816 3.24105C41.0816 1.45109 39.6306 3.32919e-05 37.8406 3.32919e-05C36.0506 3.32919e-05 34.5996 1.45109 34.5996 3.24105C34.5996 5.03102 36.0506 6.48207 37.8406 6.48207Z" fill="var(--fill-0, #2F1FFF)"/>
<path id="Vector_9" opacity="0.73" d="M46.4905 6.48207C48.2805 6.48207 49.7315 5.03102 49.7315 3.24105C49.7315 1.45109 48.2805 3.32919e-05 46.4905 3.32919e-05C44.7005 3.32919e-05 43.2495 1.45109 43.2495 3.24105C43.2495 5.03102 44.7005 6.48207 46.4905 6.48207Z" fill="var(--fill-0, #2F1FFF)"/>
<path id="Vector_10" opacity="0.8" d="M55.1403 6.48207C56.9303 6.48207 58.3813 5.03102 58.3813 3.24105C58.3813 1.45109 56.9303 3.32919e-05 55.1403 3.32919e-05C53.3503 3.32919e-05 51.8993 1.45109 51.8993 3.24105C51.8993 5.03102 53.3503 6.48207 55.1403 6.48207Z" fill="var(--fill-0, #2F1FFF)"/>
<path id="Vector_11" opacity="0.87" d="M63.7903 6.48207C65.5803 6.48207 67.0313 5.03102 67.0313 3.24105C67.0313 1.45109 65.5803 3.32919e-05 63.7903 3.32919e-05C62.0003 3.32919e-05 60.5493 1.45109 60.5493 3.24105C60.5493 5.03102 62.0003 6.48207 63.7903 6.48207Z" fill="var(--fill-0, #2F1FFF)"/>
<path id="Vector_12" opacity="0.93" d="M72.44 6.48207C74.2299 6.48207 75.681 5.03102 75.681 3.24105C75.681 1.45109 74.2299 3.32919e-05 72.44 3.32919e-05C70.65 3.32919e-05 69.1989 1.45109 69.1989 3.24105C69.1989 5.03102 70.65 6.48207 72.44 6.48207Z" fill="var(--fill-0, #2F1FFF)"/>
<path id="Vector_13" d="M81.09 6.48207C82.8799 6.48207 84.331 5.03102 84.331 3.24105C84.331 1.45109 82.8799 3.32919e-05 81.09 3.32919e-05C79.3 3.32919e-05 77.849 1.45109 77.849 3.24105C77.849 5.03102 79.3 6.48207 81.09 6.48207Z" fill="var(--fill-0, #2F1FFF)"/>
</g>
<g id="Group_3">
<path id="Vector_14" opacity="0.4" d="M3.24105 15.1321C5.03102 15.1321 6.48206 13.6811 6.48206 11.8911C6.48206 10.1011 5.03102 8.65009 3.24105 8.65009C1.45109 8.65009 2.77433e-05 10.1011 2.77433e-05 11.8911C2.77433e-05 13.6811 1.45109 15.1321 3.24105 15.1321Z" fill="var(--fill-0, #0058D4)"/>
<path id="Vector_15" opacity="0.47" d="M11.8911 15.1317C13.681 15.1317 15.1321 13.6806 15.1321 11.8906C15.1321 10.1007 13.681 8.64963 11.8911 8.64963C10.1011 8.64963 8.65004 10.1007 8.65004 11.8906C8.65004 13.6806 10.1011 15.1317 11.8911 15.1317Z" fill="var(--fill-0, #005BD9)"/>
<path id="Vector_16" opacity="0.53" d="M20.541 15.1317C22.3309 15.1317 23.782 13.6806 23.782 11.8906C23.782 10.1007 22.3309 8.64963 20.541 8.64963C18.751 8.64963 17.2999 10.1007 17.2999 11.8906C17.2999 13.6806 18.751 15.1317 20.541 15.1317Z" fill="var(--fill-0, #005EDE)"/>
<path id="Vector_17" opacity="0.6" d="M29.1907 15.1317C30.9807 15.1317 32.4318 13.6806 32.4318 11.8906C32.4318 10.1007 30.9807 8.64963 29.1907 8.64963C27.4008 8.64963 25.9497 10.1007 25.9497 11.8906C25.9497 13.6806 27.4008 15.1317 29.1907 15.1317Z" fill="var(--fill-0, #0061E2)"/>
<path id="Vector_18" opacity="0.67" d="M37.8406 15.1317C39.6306 15.1317 41.0816 13.6806 41.0816 11.8906C41.0816 10.1007 39.6306 8.64963 37.8406 8.64963C36.0507 8.64963 34.5996 10.1007 34.5996 11.8906C34.5996 13.6806 36.0507 15.1317 37.8406 15.1317Z" fill="var(--fill-0, #0064E7)"/>
<path id="Vector_19" opacity="0.73" d="M46.4905 15.1317C48.2805 15.1317 49.7315 13.6806 49.7315 11.8906C49.7315 10.1007 48.2805 8.64963 46.4905 8.64963C44.7005 8.64963 43.2495 10.1007 43.2495 11.8906C43.2495 13.6806 44.7005 15.1317 46.4905 15.1317Z" fill="var(--fill-0, #0068EC)"/>
<path id="Vector_20" opacity="0.8" d="M55.1403 15.1317C56.9303 15.1317 58.3813 13.6806 58.3813 11.8906C58.3813 10.1007 56.9303 8.64963 55.1403 8.64963C53.3503 8.64963 51.8993 10.1007 51.8993 11.8906C51.8993 13.6806 53.3503 15.1317 55.1403 15.1317Z" fill="var(--fill-0, #006BF1)"/>
<path id="Vector_21" opacity="0.87" d="M63.7903 15.1317C65.5803 15.1317 67.0313 13.6806 67.0313 11.8906C67.0313 10.1007 65.5803 8.64963 63.7903 8.64963C62.0004 8.64963 60.5493 10.1007 60.5493 11.8906C60.5493 13.6806 62.0004 15.1317 63.7903 15.1317Z" fill="var(--fill-0, #006EF5)"/>
<path id="Vector_22" opacity="0.93" d="M72.4402 15.1317C74.2302 15.1317 75.6812 13.6806 75.6812 11.8906C75.6812 10.1007 74.2302 8.64963 72.4402 8.64963C70.6502 8.64963 69.1992 10.1007 69.1992 11.8906C69.1992 13.6806 70.6502 15.1317 72.4402 15.1317Z" fill="var(--fill-0, #0071FA)"/>
<path id="Vector_23" d="M81.0901 15.1317C82.8801 15.1317 84.3311 13.6806 84.3311 11.8906C84.3311 10.1007 82.8801 8.64963 81.0901 8.64963C79.3001 8.64963 77.8491 10.1007 77.8491 11.8906C77.8491 13.6806 79.3001 15.1317 81.0901 15.1317Z" fill="var(--fill-0, #0074FF)"/>
</g>
<g id="Group_4">
<path id="Vector_24" opacity="0.4" d="M3.24104 23.7821C5.031 23.7821 6.48205 22.331 6.48205 20.5411C6.48205 18.7511 5.031 17.3001 3.24104 17.3001C1.45107 17.3001 1.38716e-05 18.7511 1.38716e-05 20.5411C1.38716e-05 22.331 1.45107 23.7821 3.24104 23.7821Z" fill="var(--fill-0, #FF0013)"/>
<path id="Vector_25" opacity="0.47" d="M11.8911 23.7821C13.681 23.7821 15.1321 22.331 15.1321 20.5411C15.1321 18.7511 13.681 17.3001 11.8911 17.3001C10.1011 17.3001 8.65004 18.7511 8.65004 20.5411C8.65004 22.331 10.1011 23.7821 11.8911 23.7821Z" fill="var(--fill-0, #FF0013)"/>
<path id="Vector_26" opacity="0.53" d="M20.541 23.7821C22.3309 23.7821 23.782 22.331 23.782 20.5411C23.782 18.7511 22.3309 17.3001 20.541 17.3001C18.751 17.3001 17.2999 18.7511 17.2999 20.5411C17.2999 22.331 18.751 23.7821 20.541 23.7821Z" fill="var(--fill-0, #FF0013)"/>
<path id="Vector_27" opacity="0.6" d="M29.1907 23.7821C30.9807 23.7821 32.4318 22.331 32.4318 20.5411C32.4318 18.7511 30.9807 17.3001 29.1907 17.3001C27.4008 17.3001 25.9497 18.7511 25.9497 20.5411C25.9497 22.331 27.4008 23.7821 29.1907 23.7821Z" fill="var(--fill-0, #FF0013)"/>
<path id="Vector_28" opacity="0.67" d="M37.8406 23.7821C39.6306 23.7821 41.0816 22.331 41.0816 20.5411C41.0816 18.7511 39.6306 17.3001 37.8406 17.3001C36.0507 17.3001 34.5996 18.7511 34.5996 20.5411C34.5996 22.331 36.0507 23.7821 37.8406 23.7821Z" fill="var(--fill-0, #FF0013)"/>
<path id="Vector_29" opacity="0.73" d="M46.4905 23.7821C48.2805 23.7821 49.7315 22.331 49.7315 20.5411C49.7315 18.7511 48.2805 17.3001 46.4905 17.3001C44.7005 17.3001 43.2495 18.7511 43.2495 20.5411C43.2495 22.331 44.7005 23.7821 46.4905 23.7821Z" fill="var(--fill-0, #FF0013)"/>
<path id="Vector_30" opacity="0.8" d="M55.1403 23.7821C56.9303 23.7821 58.3813 22.331 58.3813 20.5411C58.3813 18.7511 56.9303 17.3001 55.1403 17.3001C53.3503 17.3001 51.8993 18.7511 51.8993 20.5411C51.8993 22.331 53.3503 23.7821 55.1403 23.7821Z" fill="var(--fill-0, #FF0013)"/>
<path id="Vector_31" opacity="0.87" d="M63.7903 23.7821C65.5803 23.7821 67.0313 22.331 67.0313 20.5411C67.0313 18.7511 65.5803 17.3001 63.7903 17.3001C62.0004 17.3001 60.5493 18.7511 60.5493 20.5411C60.5493 22.331 62.0004 23.7821 63.7903 23.7821Z" fill="var(--fill-0, #FF0013)"/>
<path id="Vector_32" opacity="0.93" d="M72.4402 23.7821C74.2302 23.7821 75.6812 22.331 75.6812 20.5411C75.6812 18.7511 74.2302 17.3001 72.4402 17.3001C70.6502 17.3001 69.1992 18.7511 69.1992 20.5411C69.1992 22.331 70.6502 23.7821 72.4402 23.7821Z" fill="var(--fill-0, #FF0013)"/>
<path id="Vector_33" d="M81.0901 23.7821C82.8801 23.7821 84.3311 22.331 84.3311 20.5411C84.3311 18.7511 82.8801 17.3001 81.0901 17.3001C79.3001 17.3001 77.8491 18.7511 77.8491 20.5411C77.8491 22.331 79.3001 23.7821 81.0901 23.7821Z" fill="var(--fill-0, #FF0013)"/>
</g>
<g id="Group_5">
<path id="Vector_34" opacity="0.4" d="M3.24104 32.4316C5.031 32.4316 6.48205 30.9806 6.48205 29.1906C6.48205 27.4007 5.031 25.9496 3.24104 25.9496C1.45107 25.9496 1.38716e-05 27.4007 1.38716e-05 29.1906C1.38716e-05 30.9806 1.45107 32.4316 3.24104 32.4316Z" fill="var(--fill-0, #50E213)"/>
<path id="Vector_35" opacity="0.47" d="M11.8911 32.4319C13.681 32.4319 15.1321 30.9808 15.1321 29.1909C15.1321 27.4009 13.681 25.9499 11.8911 25.9499C10.1011 25.9499 8.65004 27.4009 8.65004 29.1909C8.65004 30.9808 10.1011 32.4319 11.8911 32.4319Z" fill="var(--fill-0, #50E213)"/>
<path id="Vector_36" opacity="0.53" d="M20.541 32.4319C22.3309 32.4319 23.782 30.9808 23.782 29.1909C23.782 27.4009 22.3309 25.9499 20.541 25.9499C18.751 25.9499 17.2999 27.4009 17.2999 29.1909C17.2999 30.9808 18.751 32.4319 20.541 32.4319Z" fill="var(--fill-0, #50E213)"/>
<path id="Vector_37" opacity="0.6" d="M29.1907 32.4319C30.9807 32.4319 32.4318 30.9808 32.4318 29.1909C32.4318 27.4009 30.9807 25.9499 29.1907 25.9499C27.4008 25.9499 25.9497 27.4009 25.9497 29.1909C25.9497 30.9808 27.4008 32.4319 29.1907 32.4319Z" fill="var(--fill-0, #50E213)"/>
<path id="Vector_38" opacity="0.67" d="M37.8406 32.4319C39.6306 32.4319 41.0816 30.9808 41.0816 29.1909C41.0816 27.4009 39.6306 25.9499 37.8406 25.9499C36.0507 25.9499 34.5996 27.4009 34.5996 29.1909C34.5996 30.9808 36.0507 32.4319 37.8406 32.4319Z" fill="var(--fill-0, #50E213)"/>
<path id="Vector_39" opacity="0.73" d="M46.4905 32.4319C48.2805 32.4319 49.7315 30.9808 49.7315 29.1909C49.7315 27.4009 48.2805 25.9499 46.4905 25.9499C44.7005 25.9499 43.2495 27.4009 43.2495 29.1909C43.2495 30.9808 44.7005 32.4319 46.4905 32.4319Z" fill="var(--fill-0, #50E213)"/>
<path id="Vector_40" opacity="0.8" d="M55.1403 32.4319C56.9303 32.4319 58.3813 30.9808 58.3813 29.1909C58.3813 27.4009 56.9303 25.9499 55.1403 25.9499C53.3503 25.9499 51.8993 27.4009 51.8993 29.1909C51.8993 30.9808 53.3503 32.4319 55.1403 32.4319Z" fill="var(--fill-0, #50E213)"/>
<path id="Vector_41" opacity="0.87" d="M63.7903 32.4319C65.5803 32.4319 67.0313 30.9808 67.0313 29.1909C67.0313 27.4009 65.5803 25.9499 63.7903 25.9499C62.0004 25.9499 60.5493 27.4009 60.5493 29.1909C60.5493 30.9808 62.0004 32.4319 63.7903 32.4319Z" fill="var(--fill-0, #50E213)"/>
<path id="Vector_42" opacity="0.93" d="M72.4402 32.4319C74.2302 32.4319 75.6812 30.9808 75.6812 29.1909C75.6812 27.4009 74.2302 25.9499 72.4402 25.9499C70.6502 25.9499 69.1992 27.4009 69.1992 29.1909C69.1992 30.9808 70.6502 32.4319 72.4402 32.4319Z" fill="var(--fill-0, #50E213)"/>
<path id="Vector_43" d="M81.0901 32.4319C82.8801 32.4319 84.3311 30.9808 84.3311 29.1909C84.3311 27.4009 82.8801 25.9499 81.0901 25.9499C79.3001 25.9499 77.8491 27.4009 77.8491 29.1909C77.8491 30.9808 79.3001 32.4319 81.0901 32.4319Z" fill="var(--fill-0, #50E213)"/>
</g>
<g id="Group_6">
<path id="Vector_44" opacity="0.4" d="M3.24103 41.082C5.03099 41.082 6.48204 39.631 6.48204 37.841C6.48204 36.051 5.03099 34.6 3.24103 34.6C1.45106 34.6 2.77433e-06 36.051 2.77433e-06 37.841C2.77433e-06 39.631 1.45106 41.082 3.24103 41.082Z" fill="var(--fill-0, #EA0CEA)"/>
<path id="Vector_45" opacity="0.47" d="M11.8911 41.0816C13.681 41.0816 15.1321 39.6306 15.1321 37.8406C15.1321 36.0507 13.681 34.5996 11.8911 34.5996C10.1011 34.5996 8.65004 36.0507 8.65004 37.8406C8.65004 39.6306 10.1011 41.0816 11.8911 41.0816Z" fill="var(--fill-0, #EA0CEA)"/>
<path id="Vector_46" opacity="0.53" d="M20.541 41.0816C22.3309 41.0816 23.782 39.6306 23.782 37.8406C23.782 36.0507 22.3309 34.5996 20.541 34.5996C18.751 34.5996 17.2999 36.0507 17.2999 37.8406C17.2999 39.6306 18.751 41.0816 20.541 41.0816Z" fill="var(--fill-0, #EA0CEA)"/>
<path id="Vector_47" opacity="0.6" d="M29.1907 41.0816C30.9807 41.0816 32.4318 39.6306 32.4318 37.8406C32.4318 36.0507 30.9807 34.5996 29.1907 34.5996C27.4008 34.5996 25.9497 36.0507 25.9497 37.8406C25.9497 39.6306 27.4008 41.0816 29.1907 41.0816Z" fill="var(--fill-0, #EA0CEA)"/>
<path id="Vector_48" opacity="0.67" d="M37.8406 41.0816C39.6306 41.0816 41.0816 39.6306 41.0816 37.8406C41.0816 36.0507 39.6306 34.5996 37.8406 34.5996C36.0507 34.5996 34.5996 36.0507 34.5996 37.8406C34.5996 39.6306 36.0507 41.0816 37.8406 41.0816Z" fill="var(--fill-0, #EA0CEA)"/>
<path id="Vector_49" opacity="0.73" d="M46.4905 41.0816C48.2805 41.0816 49.7315 39.6306 49.7315 37.8406C49.7315 36.0507 48.2805 34.5996 46.4905 34.5996C44.7005 34.5996 43.2495 36.0507 43.2495 37.8406C43.2495 39.6306 44.7005 41.0816 46.4905 41.0816Z" fill="var(--fill-0, #EA0CEA)"/>
<path id="Vector_50" opacity="0.8" d="M55.1403 41.0816C56.9303 41.0816 58.3813 39.6306 58.3813 37.8406C58.3813 36.0507 56.9303 34.5996 55.1403 34.5996C53.3503 34.5996 51.8993 36.0507 51.8993 37.8406C51.8993 39.6306 53.3503 41.0816 55.1403 41.0816Z" fill="var(--fill-0, #EA0CEA)"/>
<path id="Vector_51" opacity="0.87" d="M63.7903 41.0816C65.5803 41.0816 67.0313 39.6306 67.0313 37.8406C67.0313 36.0507 65.5803 34.5996 63.7903 34.5996C62.0004 34.5996 60.5493 36.0507 60.5493 37.8406C60.5493 39.6306 62.0004 41.0816 63.7903 41.0816Z" fill="var(--fill-0, #EA0CEA)"/>
<path id="Vector_52" opacity="0.93" d="M72.4402 41.0816C74.2302 41.0816 75.6812 39.6306 75.6812 37.8406C75.6812 36.0507 74.2302 34.5996 72.4402 34.5996C70.6502 34.5996 69.1992 36.0507 69.1992 37.8406C69.1992 39.6306 70.6502 41.0816 72.4402 41.0816Z" fill="var(--fill-0, #EA0CEA)"/>
<path id="Vector_53" d="M81.0901 41.0816C82.8801 41.0816 84.3311 39.6306 84.3311 37.8406C84.3311 36.0507 82.8801 34.5996 81.0901 34.5996C79.3001 34.5996 77.8491 36.0507 77.8491 37.8406C77.8491 39.6306 79.3001 41.0816 81.0901 41.0816Z" fill="var(--fill-0, #EA0CEA)"/>
</g>
<g id="Group_7">
<path id="Vector_54" opacity="0.4" d="M3.24103 49.7316C5.031 49.7316 6.48204 48.2806 6.48204 46.4906C6.48204 44.7007 5.031 43.2496 3.24103 43.2496C1.45106 43.2496 5.54865e-06 44.7007 5.54865e-06 46.4906C5.54865e-06 48.2806 1.45106 49.7316 3.24103 49.7316Z" fill="var(--fill-0, #2F1FFF)"/>
<path id="Vector_55" opacity="0.47" d="M11.8911 49.7312C13.681 49.7312 15.1321 48.2802 15.1321 46.4902C15.1321 44.7002 13.681 43.2492 11.8911 43.2492C10.1011 43.2492 8.65004 44.7002 8.65004 46.4902C8.65004 48.2802 10.1011 49.7312 11.8911 49.7312Z" fill="var(--fill-0, #2F1FFF)"/>
<path id="Vector_56" opacity="0.53" d="M20.541 49.7312C22.3309 49.7312 23.782 48.2802 23.782 46.4902C23.782 44.7002 22.3309 43.2492 20.541 43.2492C18.751 43.2492 17.2999 44.7002 17.2999 46.4902C17.2999 48.2802 18.751 49.7312 20.541 49.7312Z" fill="var(--fill-0, #2F1FFF)"/>
<path id="Vector_57" opacity="0.6" d="M29.1907 49.7312C30.9807 49.7312 32.4318 48.2802 32.4318 46.4902C32.4318 44.7002 30.9807 43.2492 29.1907 43.2492C27.4008 43.2492 25.9497 44.7002 25.9497 46.4902C25.9497 48.2802 27.4008 49.7312 29.1907 49.7312Z" fill="var(--fill-0, #2F1FFF)"/>
<path id="Vector_58" opacity="0.67" d="M37.8406 49.7312C39.6306 49.7312 41.0816 48.2802 41.0816 46.4902C41.0816 44.7002 39.6306 43.2492 37.8406 43.2492C36.0507 43.2492 34.5996 44.7002 34.5996 46.4902C34.5996 48.2802 36.0507 49.7312 37.8406 49.7312Z" fill="var(--fill-0, #2F1FFF)"/>
<path id="Vector_59" opacity="0.73" d="M46.4905 49.7312C48.2805 49.7312 49.7315 48.2802 49.7315 46.4902C49.7315 44.7002 48.2805 43.2492 46.4905 43.2492C44.7005 43.2492 43.2495 44.7002 43.2495 46.4902C43.2495 48.2802 44.7005 49.7312 46.4905 49.7312Z" fill="var(--fill-0, #2F1FFF)"/>
<path id="Vector_60" opacity="0.8" d="M55.1403 49.7312C56.9303 49.7312 58.3813 48.2802 58.3813 46.4902C58.3813 44.7002 56.9303 43.2492 55.1403 43.2492C53.3503 43.2492 51.8993 44.7002 51.8993 46.4902C51.8993 48.2802 53.3503 49.7312 55.1403 49.7312Z" fill="var(--fill-0, #2F1FFF)"/>
<path id="Vector_61" opacity="0.87" d="M63.7903 49.7312C65.5803 49.7312 67.0313 48.2802 67.0313 46.4902C67.0313 44.7002 65.5803 43.2492 63.7903 43.2492C62.0004 43.2492 60.5493 44.7002 60.5493 46.4902C60.5493 48.2802 62.0004 49.7312 63.7903 49.7312Z" fill="var(--fill-0, #2F1FFF)"/>
<path id="Vector_62" opacity="0.93" d="M72.4402 49.7312C74.2302 49.7312 75.6812 48.2802 75.6812 46.4902C75.6812 44.7002 74.2302 43.2492 72.4402 43.2492C70.6502 43.2492 69.1992 44.7002 69.1992 46.4902C69.1992 48.2802 70.6502 49.7312 72.4402 49.7312Z" fill="var(--fill-0, #2F1FFF)"/>
<path id="Vector_63" d="M81.0901 49.7312C82.8801 49.7312 84.3311 48.2802 84.3311 46.4902C84.3311 44.7002 82.8801 43.2492 81.0901 43.2492C79.3001 43.2492 77.8491 44.7002 77.8491 46.4902C77.8491 48.2802 79.3001 49.7312 81.0901 49.7312Z" fill="var(--fill-0, #2F1FFF)"/>
</g>
<g id="Group_8">
<path id="Vector_64" opacity="0.53" d="M20.5408 58.3819C22.3308 58.3819 23.7819 56.9309 23.7819 55.1409C23.7819 53.3509 22.3308 51.8999 20.5408 51.8999C18.7509 51.8999 17.2998 53.3509 17.2998 55.1409C17.2998 56.9309 18.7509 58.3819 20.5408 58.3819Z" fill="var(--fill-0, #0074FF)"/>
<path id="Vector_65" opacity="0.77" d="M29.1907 58.3821C30.9807 58.3821 32.4317 56.931 32.4317 55.1411C32.4317 53.3511 30.9807 51.9001 29.1907 51.9001C27.4008 51.9001 25.9497 53.3511 25.9497 55.1411C25.9497 56.931 27.4008 58.3821 29.1907 58.3821Z" fill="var(--fill-0, #0074FF)"/>
<path id="Vector_66" d="M37.8407 58.3821C39.6307 58.3821 41.0817 56.931 41.0817 55.1411C41.0817 53.3511 39.6307 51.9001 37.8407 51.9001C36.0508 51.9001 34.5997 53.3511 34.5997 55.1411C34.5997 56.931 36.0508 58.3821 37.8407 58.3821Z" fill="var(--fill-0, #0074FF)"/>
</g>
</g>
</svg>
