<svg width="40" height="39" viewBox="0 0 40 39" fill="none" xmlns="http://www.w3.org/2000/svg">
<g id="01">
<g id="Frame 21059">
<g id="Frame 21099">
<g id="Frame 21110">
<g id="Frame 21061">
<g id="logos / rozetka">
<path id="Vector" d="M39.9998 19.586C39.9558 30.3571 30.9471 39.0428 19.9119 38.9998C8.87674 38.9568 -0.04389 30.1851 0.000162457 19.414C0.0442149 8.64286 9.05295 -0.0428395 20.0881 0.000158961C31.1453 0.0431575 40.0439 8.81485 39.9998 19.586Z" fill="#221F1F"/>
<path id="Vector_2" d="M27.203 29.1532C25.0884 32.8511 22.4673 35.8824 19.5378 35.818C17.7096 35.7749 15.9695 35.1085 14.3837 34.055C14.8903 33.1521 18.0841 28.6372 27.203 29.1532ZM39.4716 19.586C39.4275 30.0561 30.6611 38.5268 19.9122 38.4624C9.16346 38.4194 0.529175 29.8841 0.529175 19.414C0.529175 12.6202 4.00932 7.7399 7.31325 5.117C11.3661 1.91361 14.1194 4.36452 15.0885 6.23496C14.9783 5.43949 14.648 3.16057 13.7449 1.52662C15.7272 0.860145 17.8639 0.494658 20.0885 0.516156C30.8373 0.580655 39.5156 9.09436 39.4716 19.586ZM18.9651 8.66438C21.7845 6.79394 26.6523 5.76197 29.2293 9.67484C27.6655 0.731149 20.9034 5.86948 18.9651 8.66438ZM15.0445 17.1136C15.6392 16.4686 16.322 15.8236 17.115 15.2432C20.6391 12.5988 24.4938 11.9323 25.7493 13.7812C26.2338 14.4907 26.2558 15.4796 25.8814 16.5546C27.1369 14.5337 27.5333 12.6632 26.7624 11.6313C25.4629 9.91129 21.4321 11.0938 17.7537 14.2757C16.6744 15.1572 15.7713 16.1461 15.0445 17.1136ZM8.89915 18.7045C10.6833 19.027 12.6216 16.8126 13.2163 13.7167C13.811 10.6208 12.8639 7.86891 11.0797 7.52492C9.29561 7.20243 7.3573 9.41685 6.7626 12.5128C6.16789 15.5871 7.11502 18.3605 8.89915 18.7045ZM33.7007 14.9636C16.6304 26.1218 4.84632 20.4675 4.84632 20.4675C4.67011 24.3374 11.4762 36.2264 19.5819 36.377C27.7096 36.5274 33.7007 14.9636 33.7007 14.9636ZM7.24718 12.5772C7.79784 9.73934 9.47183 7.67541 10.9917 7.9764C12.5114 8.25589 13.3044 10.7928 12.7757 13.6307C12.2251 16.4686 10.5511 18.5325 9.0313 18.2315C7.48947 17.9521 6.69652 15.4152 7.24718 12.5772ZM10.4851 14.9852C11.1679 15.1356 11.9168 14.3187 12.1811 13.1792C12.4454 12.0398 12.0929 10.9863 11.4101 10.8573C10.9476 10.7498 10.463 11.0938 10.1106 11.6743C10.419 11.8247 10.5731 12.2118 10.419 12.5342C10.2868 12.8352 9.97845 12.9858 9.67006 12.9212C9.53791 13.9317 9.86828 14.8346 10.4851 14.9852Z" fill="#05BC52"/>
</g>
</g>
</g>
</g>
</g>
</g>
</svg>
