<svg width="31" height="35" viewBox="0 0 31 35" fill="none" xmlns="http://www.w3.org/2000/svg">

<g id="01">

<g id="Frame 21059">
<g id="Frame 21099">
<g id="Frame 21064">

<g id="logos / tik-tok">
<path id="Vector" d="M26.5559 7.48525C26.3197 7.36317 26.0897 7.22933 25.8669 7.08425C25.2189 6.65584 24.6248 6.15106 24.0974 5.58076C22.7777 4.07074 22.2849 2.53881 22.1033 1.4663H22.1106C21.9589 0.575997 22.0217 0 22.0311 0H16.0205V23.2432C16.0205 23.5553 16.0205 23.8637 16.0073 24.1685C16.0073 24.2064 16.0037 24.2414 16.0015 24.2822C16.0015 24.299 16.0015 24.3165 15.9979 24.334C15.9979 24.3384 15.9979 24.3427 15.9979 24.3471C15.9345 25.1811 15.6672 25.9867 15.2194 26.6931C14.7717 27.3995 14.1572 27.985 13.43 28.3982C12.6721 28.8294 11.815 29.0555 10.9431 29.0544C8.1426 29.0544 5.87294 26.7707 5.87294 23.9505C5.87294 21.1302 8.1426 18.8466 10.9431 18.8466C11.4732 18.8461 12 18.9295 12.5041 19.0937L12.5114 12.9734C10.9813 12.7758 9.42678 12.8974 7.94604 13.3305C6.46526 13.7638 5.09036 14.4992 3.90802 15.4904C2.87205 16.3905 2.00109 17.4646 1.33434 18.6643C1.0806 19.1018 0.123288 20.8597 0.0073704 23.7128C-0.0655279 25.3322 0.420776 27.0099 0.65261 27.7033V27.7179C0.798452 28.1262 1.3635 29.5195 2.28436 30.6942C3.02689 31.6364 3.90415 32.4641 4.88796 33.1506V33.1361L4.90254 33.1506C7.81235 35.128 11.0386 34.9983 11.0386 34.9983C11.5971 34.9757 13.4679 34.9983 15.5925 33.9913C17.9489 32.875 19.2905 31.2119 19.2905 31.2119C20.1475 30.2181 20.829 29.0856 21.3057 27.863C21.8496 26.4331 22.0311 24.7182 22.0311 24.0329V11.7018C22.1041 11.7456 23.0752 12.3879 23.0752 12.3879C23.0752 12.3879 24.4743 13.2847 26.6572 13.8688C28.2233 14.2844 30.3333 14.3719 30.3333 14.3719V8.40467C29.594 8.48486 28.0928 8.25158 26.5559 7.48525Z" fill="white"/>
</g>
</g>
</g>
</g>
</g>
</svg>
