<svg width="35" height="40" viewBox="0 0 35 40" fill="none" xmlns="http://www.w3.org/2000/svg">

<g id="01">

<g id="Frame 21059">
<g id="Frame 21099">
<g id="Frame 21105">

<g id="Frame 21061">
<g id="logos / walmart">
<g id="Vector">
<path d="M24.4574 18.2731C25.2731 18.1074 32.4736 14.8066 33.1236 14.4371C34.5892 13.5959 35.0862 11.7098 34.2451 10.2442C33.404 8.77856 31.5178 8.28153 30.0522 9.12266C29.4022 9.49225 22.9536 14.0802 22.3928 14.7047C21.7556 15.4184 21.6537 16.4379 22.1125 17.2408C22.584 18.0565 23.5144 18.4643 24.4447 18.2731H24.4574Z" fill="#FFC220"/>
<path d="M33.1236 25.5756C32.4736 25.206 25.2731 21.9053 24.4574 21.7396C23.5271 21.5484 22.584 21.9562 22.1252 22.7719C21.6664 23.5875 21.7684 24.5943 22.4056 25.308C22.9536 25.9325 29.415 30.5204 30.065 30.89C31.5306 31.7311 33.4167 31.2341 34.2578 29.7685C35.099 28.3029 34.6019 26.4168 33.1363 25.5756H33.1236Z" fill="#FFC220"/>
<path d="M17.3206 25.5374C16.3903 25.5374 15.5619 26.1364 15.256 27.0412C14.9884 27.8314 14.2492 35.7201 14.2492 36.4593C14.2492 38.1543 15.6256 39.5307 17.3206 39.5307C19.0156 39.5307 20.392 38.1543 20.392 36.4593C20.392 34.7643 19.6401 27.8186 19.3852 27.0412C19.0793 26.1364 18.2509 25.5374 17.3206 25.5374Z" fill="#FFC220"/>
<path d="M10.1965 21.7396C9.38085 21.9053 2.18029 25.206 1.53033 25.5756C0.0647252 26.4168 -0.432303 28.3029 0.408825 29.7685C1.24995 31.2341 3.13612 31.7311 4.60172 30.89C5.25168 30.5204 11.7003 25.9325 12.2611 25.308C12.8983 24.5943 13.0003 23.5748 12.5415 22.7719C12.0699 21.9562 11.1396 21.5484 10.2092 21.7396H10.1965Z" fill="#FFC220"/>
<path d="M4.60172 9.10991C3.13612 8.26878 1.24995 8.76581 0.408825 10.2314C-0.432303 11.697 0.0647252 13.5832 1.53033 14.4243C2.18029 14.7939 9.38085 18.0947 10.1965 18.2604C11.1268 18.4515 12.0699 18.0437 12.5287 17.2281C12.9875 16.4124 12.8856 15.4056 12.2483 14.6919C11.7003 14.0675 5.23894 9.4795 4.58897 9.10991H4.60172Z" fill="#FFC220"/>
<path d="M17.3206 0.469238C15.6256 0.469238 14.2492 1.84563 14.2492 3.54063C14.2492 5.23563 15.0011 12.1813 15.256 12.9587C15.5619 13.8636 16.3903 14.4625 17.3206 14.4625C18.2509 14.4625 19.0793 13.8636 19.3852 12.9587C19.6528 12.1686 20.392 4.2798 20.392 3.54063C20.392 1.84563 19.0156 0.469238 17.3206 0.469238Z" fill="#FFC220"/>
</g>
</g>
</g>
</g>
</g>
</g>
</g>
</svg>
