<svg width="40" height="40" viewBox="0 0 40 40" fill="none" xmlns="http://www.w3.org/2000/svg">

<g id="01">

<g id="Frame 21059">
<g id="Frame 21099">
<g id="Frame 21066">

<g id="Frame 21061">
<g id="logos / whatsapp">
<g clip-path="url(#clip0_0_1)">
<rect width="40" height="40" rx="20" fill="white"/>
<path id="Vector" d="M20.5469 9.9906C18.8378 9.9907 17.1611 10.4563 15.6966 11.3373C14.2322 12.2184 13.0354 13.4817 12.2346 14.9916C11.4339 16.5014 11.0596 18.2009 11.1517 19.9074C11.2439 21.614 11.7991 23.2633 12.7578 24.6781L11.8384 28.2254L15.5353 27.3628C16.7696 28.1394 18.1675 28.6185 19.6186 28.7623C21.0698 28.906 22.5345 28.7105 23.8971 28.1911C25.2598 27.6718 26.483 26.8428 27.4704 25.7696C28.4577 24.6964 29.182 23.4084 29.5862 22.0073C29.9904 20.6061 30.0634 19.1302 29.7994 17.6961C29.5354 16.2619 28.9417 14.9087 28.0651 13.7434C27.1884 12.578 26.0529 11.6323 24.7482 10.9811C23.4434 10.3298 22.0051 9.99072 20.5469 9.9906ZM25.1734 24.5364C23.8574 25.1536 21.1098 24.8315 18.2152 22.3543C15.3206 19.8772 14.5781 17.2122 14.9844 15.8167C15.3906 14.4212 16.9867 14.1634 17.2878 14.2301C17.5889 14.2967 19.0945 16.6836 18.8894 16.9621C18.6842 17.2405 17.6932 18.2316 17.6932 18.2316C17.6932 18.2316 17.6515 19.2457 19.5123 20.8382C21.3731 22.4307 22.3685 22.2328 22.3685 22.2328C22.3685 22.2328 23.1946 21.1 23.438 20.8547C23.6813 20.6095 26.2723 21.7283 26.3847 22.0154C26.497 22.3026 26.489 23.9194 25.173 24.5364H25.1734Z" fill="url(#paint0_linear_0_1)"/>
<path id="Vector_2" d="M20 0C8.9543 0 0 8.9543 0 20C0 31.0457 8.9543 40 20 40C31.0457 40 40 31.0457 40 20C40 8.9543 31.0457 0 20 0ZM20.5469 30.7774C18.6695 30.7802 16.8208 30.3162 15.1672 29.4273L9.11719 30.9375L10.6496 25.0156C9.41477 22.8403 8.93109 20.3187 9.2734 17.8408C9.6157 15.363 10.7649 13.067 12.5433 11.3079C14.3216 9.54879 16.63 8.42469 19.1115 8.10942C21.5929 7.79415 24.1091 8.30528 26.2708 9.56377C28.4326 10.8222 30.1194 12.758 31.0705 15.0715C32.0216 17.385 32.1838 19.9475 31.5322 22.3625C30.8806 24.7775 29.4513 26.9105 27.4656 28.4316C25.4799 29.9527 23.0483 30.7772 20.5469 30.7774Z" fill="url(#paint1_linear_0_1)"/>
</g>
</g>
</g>
</g>
</g>
</g>
</g>
<defs>
<linearGradient id="paint0_linear_0_1" x1="1.0743" y1="38.8712" x2="39.0817" y2="0.863807" gradientUnits="userSpaceOnUse">
<stop stop-color="#209142"/>
<stop offset="1" stop-color="#56D263"/>
</linearGradient>
<linearGradient id="paint1_linear_0_1" x1="1.10156" y1="38.8984" x2="39.109" y2="0.891016" gradientUnits="userSpaceOnUse">
<stop stop-color="#209142"/>
<stop offset="1" stop-color="#56D263"/>
</linearGradient>
<clipPath id="clip0_0_1">
<rect width="40" height="40" rx="20" fill="white"/>
</clipPath>
</defs>
</svg>
